<svg width="39" height="75" viewBox="0 0 39 75" fill="none" xmlns="http://www.w3.org/2000/svg">
<path d="M37.3598 39.4609C37.3598 53.0791 31.9039 53.4487 25.1728 53.4487C18.4437 53.4487 12.9858 53.0811 12.9858 39.4609C12.9858 25.8407 18.4417 1.45187 25.1728 1.45187C31.9039 1.45187 37.3598 25.8407 37.3598 39.4609Z" fill="white"/>
<path d="M25.1728 54.1415C17.6286 54.1415 12.2883 53.0892 12.2883 39.4589C12.2883 25.8649 17.6023 0.755127 25.1728 0.755127C32.7433 0.755127 38.0572 25.8649 38.0572 39.4589C38.0572 53.0892 32.7169 54.1415 25.1728 54.1415ZM25.1728 2.14663C19.2486 2.14663 13.6853 25.4247 13.6853 39.4589C13.6853 52.75 19.0093 52.75 25.1728 52.75C31.3362 52.75 36.6603 52.75 36.6603 39.4589C36.6603 25.4247 31.097 2.14663 25.1728 2.14663Z" fill="#1B1B1B"/>
<path d="M25.1728 63.1267C24.7876 63.1267 24.4753 62.8157 24.4753 62.432V30.1727C24.4753 29.789 24.7876 29.478 25.1728 29.478C25.558 29.478 25.8702 29.789 25.8702 30.1727V62.432C25.8702 62.8157 25.558 63.1267 25.1728 63.1267Z" fill="#1B1B1B"/>
<path d="M25.1727 47.4687C25.047 47.4687 24.9192 47.4343 24.8037 47.3636C24.4772 47.1597 24.3779 46.7315 24.5807 46.4043L28.2098 40.6101C28.4146 40.2849 28.8464 40.1859 29.1708 40.3879C29.4972 40.5919 29.5966 41.02 29.3938 41.3452L25.7647 47.1395C25.6329 47.3515 25.4058 47.4687 25.1727 47.4687Z" fill="#1B1B1B"/>
<path d="M25.1726 39.8648C25.0165 39.8648 24.8584 39.8123 24.7286 39.7053L22.0301 37.4797C21.732 37.2353 21.6915 36.797 21.9368 36.5002C22.1821 36.2053 22.6221 36.1629 22.9202 36.4073L25.6187 38.6329C25.9147 38.8772 25.9573 39.3155 25.712 39.6124C25.5721 39.78 25.3733 39.8648 25.1726 39.8648Z" fill="#1B1B1B"/>
<path d="M32.2284 74.0751H1.74163C1.07662 72.8673 0.69751 71.4778 0.69751 70.0035C0.69751 65.3201 4.51114 61.5212 9.21279 61.5212C10.9118 61.5212 12.4973 62.016 13.8252 62.8783C15.3438 60.576 17.9633 59.0573 20.9335 59.0573C25.6351 59.0573 29.4488 62.8561 29.4488 67.5396C29.4488 68.2283 29.3656 68.9028 29.2034 69.5471C30.6591 70.672 31.7438 72.2514 32.2284 74.0751Z" fill="white"/>
<path d="M32.2405 74.7698C32.2364 74.7698 32.2323 74.7698 32.2303 74.7698H1.74357C1.48812 74.7698 1.25293 74.6304 1.13128 74.4083C0.391264 73.0632 0 71.5404 0 70.0015C0 64.9404 4.13395 60.8244 9.21271 60.8244C10.7698 60.8244 12.2843 61.2122 13.6305 61.9493C15.368 59.6894 18.0504 58.3605 20.9334 58.3605C26.0142 58.3605 30.1461 62.4785 30.1461 67.5376C30.1461 68.1233 30.0893 68.7069 29.9778 69.2765C31.3646 70.4599 32.3824 72.0373 32.871 73.7741C32.9136 73.865 32.9379 73.966 32.9379 74.073C32.9379 74.4588 32.6257 74.7698 32.2405 74.7698ZM2.16733 73.3803H31.2632C30.7483 72.0979 29.8846 70.9548 28.7755 70.0984C28.5566 69.9288 28.4593 69.6481 28.5262 69.3795C28.6742 68.7837 28.7512 68.1657 28.7512 67.5396C28.7512 63.2459 25.2437 59.752 20.9334 59.752C18.2977 59.752 15.8587 61.0627 14.4091 63.26C14.1982 63.5791 13.7644 63.67 13.446 63.46C12.1911 62.6461 10.7272 62.2159 9.21474 62.2159C4.90439 62.2159 1.39689 65.7098 1.39689 70.0035C1.39486 71.1729 1.66047 72.3321 2.16733 73.3803Z" fill="#1B1B1B"/>
</svg>
