<svg width="48" height="66" viewBox="0 0 48 66" fill="none" xmlns="http://www.w3.org/2000/svg">
<path d="M29.1398 47.3146C28.7546 47.3146 28.4424 47.0036 28.4424 46.6198V14.1809C28.4424 13.7971 28.7546 13.4861 29.1398 13.4861C29.525 13.4861 29.8373 13.7971 29.8373 14.1809V46.6198C29.8373 47.0036 29.525 47.3146 29.1398 47.3146Z" fill="#1B1B1B"/>
<path d="M17.8368 11.4322C17.8368 11.4322 17.8369 11.4322 11.7646 11.4322C11.7646 5.69449 15.8824 5.07245 17.8368 5.07245C19.7913 5.07245 23.9091 5.69247 23.9091 11.4322C17.8369 11.4322 17.8368 11.4322 17.8368 11.4322Z" fill="white"/>
<path d="M23.9214 12.129C23.9173 12.129 23.9133 12.129 23.9113 12.129H11.7648C11.3796 12.129 11.0674 11.8179 11.0674 11.4342C11.0674 5.06842 15.8015 4.37973 17.837 4.37973C19.8584 4.37973 24.5438 5.05832 24.6067 11.307C24.6148 11.3474 24.6188 11.3898 24.6188 11.4342C24.6188 11.8179 24.3066 12.129 23.9214 12.129ZM12.4866 10.7375H23.1895C22.9117 6.65179 20.1625 5.76922 17.837 5.76922C15.5136 5.76922 12.7644 6.65381 12.4866 10.7375Z" fill="#1B1B1B"/>
<path d="M17.8366 11.4322C17.8366 11.4322 17.8366 11.4322 21.7456 11.4322C21.7456 15.1261 19.0937 15.5259 17.8366 15.5259C16.5776 15.5259 13.9277 15.1261 13.9277 11.4322C17.8367 11.4322 17.8366 11.4322 17.8366 11.4322Z" fill="white"/>
<path d="M17.8368 16.2227C14.9518 16.2227 13.2305 14.4333 13.2305 11.4342C13.2305 11.0505 13.5427 10.7395 13.9279 10.7395H21.7457C22.131 10.7395 22.4432 11.0505 22.4432 11.4342C22.4452 14.4313 20.7219 16.2227 17.8368 16.2227ZM14.6659 12.129C14.8747 13.9224 15.9391 14.8312 17.8389 14.8312C19.7386 14.8312 20.803 13.9224 21.0118 12.129H14.6659Z" fill="#1B1B1B"/>
<path d="M29.1398 14.8776C28.7546 14.8776 28.4424 14.5666 28.4424 14.1829V6.67399C28.4444 6.6134 28.5519 4.16968 27.1813 2.73374C26.5082 2.02687 25.5573 1.6694 24.3591 1.6694C19.2256 1.6694 18.7411 2.60448 18.7411 5.07649C18.7411 5.46021 18.4288 5.77123 18.0436 5.77123C17.6584 5.77123 17.3462 5.46021 17.3462 5.07649C17.3462 0.996876 19.6088 0.277893 24.3612 0.277893C25.9608 0.277893 27.2523 0.784811 28.2011 1.7825C29.9853 3.66073 29.8454 6.58917 29.8393 6.71236V14.1829C29.8373 14.5646 29.5251 14.8776 29.1398 14.8776Z" fill="#1B1B1B"/>
<path d="M40.4428 11.4322C40.4428 11.4322 40.4428 11.4322 46.515 11.4322C46.515 5.69449 42.3973 5.07245 40.4428 5.07245C38.4883 5.07245 34.3706 5.69247 34.3706 11.4322C40.4428 11.4322 40.4428 11.4322 40.4428 11.4322Z" fill="white"/>
<path d="M46.5152 12.129H34.3708C33.9856 12.129 33.6733 11.8179 33.6733 11.4342C33.6733 5.06842 38.4074 4.37973 40.443 4.37973C42.4785 4.37973 47.2126 5.06842 47.2126 11.4342C47.2126 11.8179 46.9004 12.129 46.5152 12.129ZM35.0905 10.7375H45.7934C45.5156 6.65179 42.7664 5.76922 40.443 5.76922C38.1175 5.76922 35.3683 6.65381 35.0905 10.7375Z" fill="#1B1B1B"/>
<path d="M40.4431 11.4322C40.4431 11.4322 40.4431 11.4322 36.5342 11.4322C36.5342 15.1261 39.1861 15.5259 40.4431 15.5259C41.7021 15.5259 44.352 15.1261 44.352 11.4322C40.4431 11.4322 40.4431 11.4322 40.4431 11.4322Z" fill="white"/>
<path d="M40.4433 16.2227C37.5582 16.2227 35.8369 14.4333 35.8369 11.4342C35.8369 11.0505 36.1492 10.7395 36.5344 10.7395H44.3522C44.7374 10.7395 45.0496 11.0505 45.0496 11.4342C45.0496 14.4313 43.3263 16.2227 40.4433 16.2227ZM37.2703 12.129C37.4792 13.9224 38.5436 14.8312 40.4433 14.8312C42.343 14.8312 43.4074 13.9224 43.6162 12.129H37.2703Z" fill="#1B1B1B"/>
<path d="M29.1402 14.8776C28.755 14.8776 28.4428 14.5666 28.4428 14.1829V6.67399C28.4367 6.58917 28.2968 3.65871 30.081 1.7825C31.0298 0.784811 32.3213 0.277893 33.921 0.277893C38.6733 0.277893 40.9359 0.994856 40.9359 5.07649C40.9359 5.46021 40.6237 5.77123 40.2385 5.77123C39.8533 5.77123 39.5411 5.46021 39.5411 5.07649C39.5411 2.60448 39.0565 1.6694 33.923 1.6694C32.7207 1.6694 31.7698 2.02889 31.0967 2.7398C29.7201 4.18786 29.8377 6.6134 29.8397 6.63764V14.1849C29.8377 14.5646 29.5255 14.8776 29.1402 14.8776Z" fill="#1B1B1B"/>
<path d="M32.7687 50.241V61.1044H25.5044V50.241C25.5044 48.2375 27.1284 46.6198 29.1335 46.6198H29.1396C30.1452 46.6198 31.0495 47.0257 31.7084 47.6821C32.3612 48.3324 32.7687 49.2392 32.7687 50.241Z" fill="white"/>
<path d="M32.7689 61.7992H25.5046C25.1194 61.7992 24.8071 61.4882 24.8071 61.1045V50.241C24.8071 47.8599 26.7474 45.9251 29.1337 45.9251C30.2934 45.9251 31.3822 46.3754 32.2012 47.1914C33.0183 48.0032 33.4664 49.0878 33.4664 50.241V61.1045C33.4664 61.4882 33.1541 61.7992 32.7689 61.7992ZM26.202 60.4097H32.0715V50.243C32.0715 49.4594 31.7674 48.7263 31.2139 48.1769C30.6584 47.6236 29.9203 47.3186 29.1398 47.3186C27.5178 47.3186 26.202 48.6313 26.202 50.245V60.4097Z" fill="#1B1B1B"/>
<path d="M36.5342 64.8973C36.5342 64.9296 36.5342 64.9579 36.5281 64.9922H21.7419C21.7358 64.9579 21.7358 64.9316 21.7358 64.8973C21.7358 63.8451 22.1596 62.8999 22.8529 62.2152C23.5342 61.5366 24.4729 61.1145 25.5049 61.1024H32.7692C34.8514 61.1267 36.5342 62.8171 36.5342 64.8973Z" fill="white"/>
<path d="M36.5258 65.6869H21.7397C21.397 65.6869 21.1051 65.4385 21.0503 65.1033C21.0382 65.0306 21.0361 64.97 21.0361 64.8973C21.0361 63.6916 21.5065 62.5646 22.3601 61.7225C23.1974 60.8884 24.3105 60.4218 25.4965 60.4077H32.769C35.2323 60.4339 37.2314 62.4475 37.2314 64.8973C37.2314 64.974 37.2273 65.0366 37.2152 65.1134C37.1543 65.4446 36.8664 65.6869 36.5258 65.6869ZM22.4919 64.2975H35.7737C35.4898 62.8837 34.247 61.8154 32.7629 61.7992H25.5067C24.6957 61.8073 23.9273 62.1304 23.3474 62.708C22.9014 63.1463 22.6094 63.6976 22.4919 64.2975Z" fill="#1B1B1B"/>
<path d="M25.113 47.3974C25.0988 47.1409 25.0744 46.8824 25.0278 46.6219C24.4054 43.1441 21.0722 40.8276 17.581 41.4456C17.3377 41.488 17.1025 41.5486 16.8714 41.6153C15.959 39.3331 13.5363 37.9254 11.0141 38.3718C8.6866 38.7838 6.98758 40.6519 6.68752 42.8654C6.25567 42.8331 5.81369 42.8493 5.36967 42.928C2.48462 43.439 0.562613 46.1836 1.07758 49.0575C1.29655 50.2854 1.92911 51.3356 2.80294 52.0991C2.70968 52.7514 2.71575 53.428 2.83739 54.1126C3.45982 57.5904 6.79294 59.9089 10.2862 59.2889C11.6304 59.0506 12.8003 58.4083 13.6964 57.5136C14.85 58.4426 16.3828 58.891 17.9581 58.6103C19.7179 58.2972 21.1148 57.1521 21.8244 55.6576C22.5199 55.898 23.2862 55.9707 24.0628 55.8333C26.4916 55.4011 28.1095 53.0907 27.6777 50.6712C27.406 49.1706 26.4105 47.9811 25.113 47.3974Z" fill="white"/>
<path d="M9.15098 60.0846C5.70026 60.0846 2.75438 57.6247 2.14817 54.2338C2.03869 53.6198 2.01235 52.9938 2.06709 52.3677C1.18515 51.4972 0.607323 50.4026 0.388359 49.1787C-0.191491 45.9332 1.98801 42.821 5.24611 42.2434C5.52793 42.1929 5.81786 42.1646 6.11184 42.1565C6.66736 39.8683 8.52246 38.1072 10.8905 37.6871C11.2392 37.6245 11.5961 37.5922 11.9489 37.5922C14.173 37.5922 16.2349 38.8585 17.2608 40.7973C17.3277 40.7832 17.3925 40.7711 17.4574 40.759C17.8731 40.6863 18.2948 40.6479 18.7145 40.6479C22.1652 40.6479 25.109 43.1078 25.7152 46.4987C25.7416 46.6421 25.7619 46.7915 25.7781 46.9511C27.1344 47.7004 28.0873 49.0171 28.361 50.55C28.8598 53.3431 26.9844 56.0191 24.1825 56.518C23.5134 56.6371 22.8302 56.623 22.1712 56.4776C21.2832 57.9539 19.791 58.992 18.0778 59.2949C16.5775 59.5615 15.0144 59.2364 13.7472 58.4103C12.7923 59.2162 11.6488 59.7534 10.406 59.9735C9.99036 60.0483 9.56863 60.0846 9.15098 60.0846ZM6.27201 43.548C6.00642 43.548 5.74286 43.5703 5.49145 43.6147C2.99161 44.057 1.31897 46.4462 1.765 48.9364C1.9495 49.9684 2.46851 50.8812 3.26327 51.578C3.43965 51.7315 3.52684 51.9658 3.4944 52.198C3.40924 52.7999 3.41939 53.4037 3.52481 53.9935C4.01343 56.7179 6.37946 58.6971 9.15301 58.6971C9.48957 58.6971 9.83017 58.6668 10.1647 58.6083C11.3203 58.4023 12.3706 57.855 13.2038 57.0249C13.4573 56.7724 13.8587 56.7522 14.1365 56.9744C15.1684 57.8065 16.5309 58.1579 17.8366 57.9277C19.3004 57.6671 20.5554 56.7078 21.192 55.3607C21.3441 55.0396 21.7151 54.8841 22.0516 54.9992C22.6599 55.2093 23.3066 55.2598 23.9392 55.1487C25.9849 54.7852 27.3534 52.8322 26.9905 50.7944C26.7736 49.5766 25.9646 48.5425 24.8292 48.0316C24.592 47.9245 24.4339 47.6943 24.4197 47.4358C24.4055 47.1773 24.3812 46.9511 24.3447 46.7451C23.8581 44.0206 21.4921 42.0414 18.7165 42.0414C18.3799 42.0414 18.0393 42.0717 17.7048 42.1303C17.502 42.1666 17.2952 42.2171 17.0722 42.2838C16.7255 42.3868 16.3586 42.2091 16.2247 41.8738C15.5354 40.147 13.8182 38.9857 11.9529 38.9857C11.6833 38.9857 11.4075 39.01 11.1379 39.0585C9.1591 39.4099 7.65067 40.9771 7.38102 42.9603C7.33236 43.3239 7.01202 43.5844 6.63897 43.5602C6.5153 43.5521 6.39366 43.548 6.27201 43.548Z" fill="#1B1B1B"/>
<path d="M13.6945 65.7698C13.3093 65.7698 12.9971 65.4588 12.9971 65.075V50.1481C12.9971 49.7644 13.3093 49.4534 13.6945 49.4534C14.0797 49.4534 14.392 49.7644 14.392 50.1481V65.075C14.392 65.4567 14.0797 65.7698 13.6945 65.7698Z" fill="#1B1B1B"/>
<path d="M13.6945 56.2413C13.6175 56.2413 13.5404 56.2292 13.4654 56.2029L9.06785 54.6741C8.70494 54.5489 8.51234 54.151 8.64006 53.7895C8.76577 53.426 9.16315 53.2361 9.52809 53.3634L13.9256 54.8922C14.2885 55.0174 14.4812 55.4153 14.3534 55.7768C14.252 56.0616 13.9824 56.2413 13.6945 56.2413Z" fill="#1B1B1B"/>
<path d="M13.6946 54.7124C13.4817 54.7124 13.2729 54.6175 13.135 54.4337C12.9039 54.1267 12.9667 53.6905 13.2749 53.4603L16.6242 50.958C16.9324 50.7277 17.3703 50.7904 17.6015 51.0973C17.8326 51.4043 17.7697 51.8406 17.4616 52.0708L14.1122 54.5731C13.9865 54.666 13.8406 54.7124 13.6946 54.7124Z" fill="#1B1B1B"/>
</svg>
