<svg width="111" height="67" viewBox="0 0 111 67" fill="none" xmlns="http://www.w3.org/2000/svg">
<path d="M59.571 48.2923C59.1858 48.2923 58.8735 47.9813 58.8735 47.5975V15.1586C58.8735 14.7749 59.1858 14.4638 59.571 14.4638C59.9562 14.4638 60.2684 14.7749 60.2684 15.1586V47.5975C60.2705 47.9813 59.9582 48.2923 59.571 48.2923Z" fill="#1B1B1B"/>
<path d="M48.2699 12.4119C48.2699 12.4119 48.27 12.4119 42.1978 12.4119C42.1978 6.67417 46.3155 6.05212 48.2699 6.05212C50.2244 6.05212 54.3421 6.67215 54.3421 12.4119C48.2699 12.4119 48.2699 12.4119 48.2699 12.4119Z" fill="white"/>
<path d="M54.3525 13.1066C54.3484 13.1066 54.3443 13.1066 54.3423 13.1066H42.1979C41.8127 13.1066 41.5005 12.7956 41.5005 12.4119C41.5005 6.04609 46.2346 5.35739 48.2701 5.35739C50.2915 5.35739 54.9769 6.03599 55.0398 12.2847C55.0479 12.3251 55.0519 12.3675 55.0519 12.4119C55.0499 12.7956 54.7377 13.1066 54.3525 13.1066ZM42.9177 11.7171H53.6206C53.3428 7.63148 50.5936 6.7489 48.2681 6.7489C45.9446 6.74688 43.1954 7.63148 42.9177 11.7171Z" fill="#1B1B1B"/>
<path d="M48.2698 12.4119C48.2698 12.4119 48.2698 12.4119 52.1787 12.4119C52.1787 16.1058 49.5288 16.5056 48.2698 16.5056C47.0127 16.5056 44.3608 16.1058 44.3608 12.4119C48.2698 12.4119 48.2698 12.4119 48.2698 12.4119Z" fill="white"/>
<path d="M48.2699 17.2004C45.3849 17.2004 43.6636 15.411 43.6636 12.4119C43.6636 12.0282 43.9758 11.7172 44.361 11.7172H52.1789C52.5641 11.7172 52.8763 12.0282 52.8763 12.4119C52.8763 15.411 51.155 17.2004 48.2699 17.2004ZM45.097 13.1067C45.3058 14.9001 46.3702 15.8089 48.2699 15.8089C50.1696 15.8089 51.2341 14.9001 51.4429 13.1067H45.097Z" fill="#1B1B1B"/>
<path d="M59.571 15.8553C59.1858 15.8553 58.8736 15.5443 58.8736 15.1606V7.65169C58.8756 7.5911 58.983 5.14737 57.6125 3.71143C56.9394 3.00457 55.9885 2.64709 54.7903 2.64709C49.6568 2.64709 49.1722 3.58217 49.1722 6.05417C49.1722 6.4379 48.86 6.74892 48.4748 6.74892C48.0896 6.74892 47.7773 6.4379 47.7773 6.05417C47.7773 1.97456 50.04 1.25558 54.7923 1.25558C56.392 1.25558 57.6835 1.7625 58.6323 2.76019C60.4165 4.63843 60.2766 7.56686 60.2705 7.69006L60.2725 15.1606C60.2705 15.5443 59.9582 15.8553 59.571 15.8553Z" fill="#1B1B1B"/>
<path d="M70.874 12.4119C70.874 12.4119 70.874 12.4119 76.9462 12.4119C76.9462 6.67417 72.8284 6.05212 70.874 6.05212C68.9195 6.05212 64.8018 6.67215 64.8018 12.4119C70.874 12.4119 70.874 12.4119 70.874 12.4119Z" fill="white"/>
<path d="M76.9464 13.1066H64.8019C64.4167 13.1066 64.1045 12.7956 64.1045 12.4119C64.1045 6.04609 68.8386 5.35739 70.8741 5.35739C72.9097 5.35739 77.6438 6.04407 77.6438 12.4119C77.6438 12.7956 77.3316 13.1066 76.9464 13.1066ZM65.5237 11.7171H76.2266C75.9488 7.63148 73.1996 6.7489 70.8761 6.7489C68.5486 6.74688 65.8015 7.63148 65.5237 11.7171Z" fill="#1B1B1B"/>
<path d="M70.8738 12.4119C70.8738 12.4119 70.8738 12.4119 66.9648 12.4119C66.9648 16.1058 69.6147 16.5056 70.8738 16.5056C72.1308 16.5056 74.7827 16.1058 74.7827 12.4119C70.8738 12.4119 70.8738 12.4119 70.8738 12.4119Z" fill="white"/>
<path d="M70.8739 17.2004C67.9889 17.2004 66.2676 15.411 66.2676 12.4119C66.2676 12.0282 66.5798 11.7172 66.965 11.7172H74.7829C75.1681 11.7172 75.4803 12.0282 75.4803 12.4119C75.4803 15.411 73.759 17.2004 70.8739 17.2004ZM67.701 13.1067C67.9098 14.9001 68.9742 15.8089 70.8739 15.8089C72.7737 15.8089 73.8381 14.9001 74.0469 13.1067H67.701Z" fill="#1B1B1B"/>
<path d="M59.5709 15.8553C59.1857 15.8553 58.8735 15.5443 58.8735 15.1606V7.65169C58.8674 7.56686 58.7275 4.63641 60.5117 2.76019C61.4605 1.7625 62.752 1.25558 64.3516 1.25558C69.104 1.25558 71.3666 1.97254 71.3666 6.05417C71.3666 6.4379 71.0544 6.74892 70.6692 6.74892C70.2839 6.74892 69.9717 6.4379 69.9717 6.05417C69.9717 3.58217 69.4872 2.64709 64.3537 2.64709C63.1534 2.64709 62.2005 3.00658 61.5274 3.71547C60.1508 5.16353 60.2684 7.58908 60.2704 7.61331L60.2724 15.1606C60.2704 15.5443 59.9581 15.8553 59.5709 15.8553Z" fill="#1B1B1B"/>
<path d="M63.1999 51.2187V62.0821H55.9355V51.2187C55.9355 49.2152 57.5595 47.5975 59.5647 47.5975H59.5707C60.5764 47.5975 61.4806 48.0034 62.1396 48.6598C62.7944 49.3101 63.1999 50.219 63.1999 51.2187Z" fill="white"/>
<path d="M63.2001 62.7769H55.9357C55.5505 62.7769 55.2383 62.4659 55.2383 62.0822V51.2187C55.2383 48.8376 57.1805 46.9028 59.5648 46.9028C60.7245 46.9028 61.8133 47.3531 62.6324 48.1691C63.4474 48.983 63.8975 50.0655 63.8975 51.2207V62.0842C63.8995 62.4659 63.5873 62.7769 63.2001 62.7769ZM56.6352 61.3874H62.5026V51.2187C62.5026 50.4351 62.1985 49.7019 61.647 49.1506C61.0915 48.5972 60.3535 48.2923 59.5709 48.2923C57.949 48.2923 56.6331 49.605 56.6331 51.2187V61.3874H56.6352Z" fill="#1B1B1B"/>
<path d="M66.9648 65.875C66.9648 65.9073 66.9649 65.9356 66.9588 65.9699H52.1726C52.1665 65.9356 52.1665 65.9093 52.1665 65.875C52.1665 64.8228 52.5902 63.8776 53.2836 63.1929C53.9649 62.5144 54.9036 62.0923 55.9355 62.0801H63.1999C65.2841 62.1044 66.9648 63.7948 66.9648 65.875Z" fill="white"/>
<path d="M66.959 66.6667H52.1728C51.8301 66.6667 51.5382 66.4183 51.4834 66.083C51.4713 66.0103 51.4692 65.9497 51.4692 65.877C51.4692 64.6733 51.9396 63.5444 52.7932 62.7022C53.6305 61.8681 54.7456 61.4016 55.9296 61.3874H63.2021C65.6654 61.4137 67.6645 63.4272 67.6645 65.877C67.6645 65.9497 67.6625 66.0083 67.6503 66.083C67.5935 66.4183 67.3016 66.6667 66.959 66.6667ZM52.9229 65.2752H66.2047C65.9188 63.8614 64.6781 62.7931 63.194 62.7769H55.9377C55.1288 62.785 54.3584 63.1081 53.7785 63.6857C53.3345 64.126 53.0405 64.6753 52.9229 65.2752Z" fill="#1B1B1B"/>
<path d="M109.994 66.075H69.165C69.1386 65.8125 69.1265 65.5479 69.1265 65.2753C69.1265 60.6685 72.8773 56.9323 77.5019 56.9323C78.177 56.9323 78.8359 57.009 79.4664 57.1665C79.4604 57.0151 79.4563 56.8596 79.4563 56.7041C79.4563 52.0933 83.2071 48.3611 87.8317 48.3611C92.4543 48.3611 96.2071 52.0933 96.2071 56.7041C96.2071 56.904 96.201 57.11 96.1848 57.3039C98.4129 57.9986 100.244 59.5941 101.243 61.6642C101.673 61.5976 102.109 61.5652 102.555 61.5652C105.795 61.5652 108.603 63.393 109.994 66.075Z" fill="white"/>
<path d="M110.006 66.7698C110.004 66.7698 110 66.7698 109.996 66.7698H69.1671C68.8103 66.7698 68.5102 66.5012 68.4737 66.1457C68.4453 65.8751 68.4312 65.5903 68.4312 65.2732C68.4312 60.2888 72.5023 56.2355 77.504 56.2355C77.9318 56.2355 78.3555 56.2658 78.7691 56.3223C78.9698 51.5136 82.9598 47.6643 87.8338 47.6643C92.8376 47.6643 96.9066 51.7176 96.9066 56.702C96.9066 56.7404 96.9066 56.7788 96.9066 56.8151C98.9138 57.5765 100.601 59.0367 101.641 60.9109C101.941 60.8806 102.243 60.8665 102.557 60.8665C105.925 60.8665 108.982 62.6962 110.561 65.6509C110.651 65.768 110.705 65.9135 110.705 66.073C110.703 66.4587 110.391 66.7698 110.006 66.7698ZM69.826 65.3803H108.745C107.314 63.4314 105.035 62.26 102.557 62.26C102.139 62.26 101.746 62.2903 101.353 62.3509C101.047 62.3973 100.749 62.2418 100.615 61.9651C99.6924 60.0566 98.0014 58.5984 95.976 57.9663C95.6638 57.8694 95.4611 57.5684 95.4895 57.2433C95.5057 57.0676 95.5097 56.8818 95.5097 56.702C95.5097 52.4851 92.0651 49.0538 87.8318 49.0538C83.5985 49.0538 80.1538 52.4851 80.1538 56.702C80.1538 56.8495 80.1599 56.9969 80.164 57.1383C80.1721 57.3564 80.0768 57.5664 79.9065 57.7037C79.7362 57.8411 79.5111 57.8916 79.2982 57.8391C78.7285 57.6977 78.1223 57.627 77.5019 57.627C73.2686 57.627 69.824 61.0583 69.824 65.2753C69.826 65.3096 69.826 65.3439 69.826 65.3803Z" fill="#1B1B1B"/>
<path d="M40.0143 12.8058C38.3984 8.75851 34.3273 6.41779 30.1832 6.79747C27.9794 2.36847 22.6999 0.290295 18.0064 2.14833C14.653 3.47522 12.4694 6.4703 12.0193 9.79458C10.5818 9.6734 9.09572 9.86526 7.66434 10.4328C2.72143 12.3898 0.306764 17.9679 2.26933 22.8917C3.02963 24.7962 4.33532 26.317 5.93294 27.3611C4.60091 29.7826 4.32112 32.7555 5.42608 35.5224C7.0521 39.5959 11.1637 41.9366 15.3362 41.5186C17.6941 45.5538 22.7141 47.3815 27.2029 45.6043C29.8021 44.5763 31.6916 42.5425 32.6243 40.1331C33.2203 40.0221 33.8164 39.8544 34.4023 39.6242C39.3453 37.6672 41.7599 32.089 39.7953 27.1632C39.2378 25.7636 38.3761 24.5741 37.3279 23.6228C40.3671 21.0317 41.5734 16.7158 40.0143 12.8058Z" fill="white"/>
<path d="M23.6609 46.9816C20.1474 46.9816 16.8568 45.1781 14.9693 42.2477C14.7726 42.2598 14.576 42.2658 14.3813 42.2658C10.1217 42.2658 6.35464 39.7211 4.78336 35.7829C3.71895 33.117 3.82033 30.1664 5.04288 27.5873C3.51013 26.4503 2.33627 24.9255 1.62666 23.1502C0.606859 20.5954 0.64737 17.7983 1.74016 15.2758C2.83296 12.7513 4.84621 10.8044 7.41093 9.7885C8.6943 9.28158 10.0547 9.03923 11.4375 9.06952C12.1167 5.66042 14.4908 2.79662 17.7509 1.50407C18.9735 1.01936 20.2548 0.774994 21.5585 0.774994C25.293 0.774994 28.7863 2.84106 30.5907 6.07445C35.0268 5.86845 39.033 8.46365 40.6631 12.5493C42.1958 16.3926 41.2592 20.755 38.3437 23.641C39.254 24.5922 39.9596 25.6889 40.4462 26.9087C41.466 29.4635 41.4254 32.2607 40.3326 34.7832C39.2398 37.3077 37.2266 39.2566 34.6619 40.2705C34.1733 40.4643 33.6603 40.6219 33.1332 40.739C32.0525 43.2494 30.0048 45.2448 27.4644 46.2505C26.2439 46.7352 24.9626 46.9816 23.6609 46.9816ZM15.3403 40.8259C15.5876 40.8259 15.8167 40.9551 15.9424 41.1712C17.536 43.8977 20.492 45.5901 23.6589 45.5901C24.7842 45.5901 25.8911 45.3781 26.9474 44.96C29.281 44.037 31.0672 42.2335 31.9755 39.8847C32.0627 39.6605 32.2593 39.4969 32.4965 39.4525C33.0703 39.3455 33.6258 39.1859 34.1469 38.9799C36.3649 38.1014 38.1065 36.417 39.0513 34.2339C39.9961 32.0507 40.0305 29.6332 39.1486 27.4237C38.6478 26.1695 37.8774 25.0648 36.8596 24.1419C36.7116 24.0065 36.6285 23.8167 36.6326 23.6168C36.6366 23.4188 36.7238 23.229 36.8758 23.0997C39.771 20.6237 40.7706 16.5906 39.3635 13.0643C38.0051 9.65723 34.745 7.45586 31.0611 7.45586C30.7895 7.45586 30.5157 7.46797 30.2461 7.49423C29.9602 7.51847 29.6845 7.367 29.5567 7.11051C28.0625 4.10735 24.922 2.1665 21.5564 2.1665C20.4292 2.1665 19.3222 2.37857 18.2639 2.79662C15.2693 3.98213 13.1426 6.70052 12.7127 9.88948C12.662 10.2571 12.3316 10.5176 11.9626 10.4893C10.588 10.3742 9.2032 10.5721 7.92388 11.0811C5.70585 11.9596 3.96429 13.6439 3.0195 15.8271C2.0747 18.0103 2.04024 20.4278 2.92015 22.6373C3.59935 24.3398 4.77527 25.7737 6.31816 26.7835C6.62227 26.9835 6.72159 27.3813 6.54723 27.6984C5.26183 30.0371 5.08953 32.7959 6.0769 35.2679C7.43529 38.673 10.6934 40.8743 14.3793 40.8743C14.6753 40.8743 14.9753 40.8582 15.2693 40.8299C15.2936 40.8259 15.318 40.8259 15.3403 40.8259Z" fill="#1B1B1B"/>
<path d="M23.4621 66.7697C23.0769 66.7697 22.7646 66.4587 22.7646 66.075V30.7561C22.7646 30.3724 23.0769 30.0613 23.4621 30.0613C23.8473 30.0613 24.1596 30.3724 24.1596 30.7561V66.075C24.1596 66.4587 23.8473 66.7697 23.4621 66.7697Z" fill="#1B1B1B"/>
<path d="M23.4605 41.2601C23.3145 41.2601 23.1665 41.2136 23.0408 41.1187C22.7326 40.8864 22.6718 40.4522 22.9049 40.1452L27.931 33.5169C28.1621 33.2099 28.6 33.1493 28.9082 33.3816C29.2163 33.6138 29.2772 34.0481 29.044 34.355L24.018 40.9834C23.8822 41.1652 23.6733 41.2601 23.4605 41.2601Z" fill="#1B1B1B"/>
<path d="M23.4602 35.5951C23.302 35.5951 23.1419 35.5405 23.0121 35.4315L20.3602 33.2059C20.0642 32.9574 20.0277 32.5192 20.2751 32.2263C20.5224 31.9335 20.9623 31.8951 21.2583 32.1435L23.9103 34.3691C24.2042 34.6176 24.2428 35.0558 23.9954 35.3487C23.8575 35.5102 23.6609 35.5951 23.4602 35.5951Z" fill="#1B1B1B"/>
</svg>
