<svg width="205" height="97" viewBox="0 0 205 97" fill="none" xmlns="http://www.w3.org/2000/svg">
<path d="M189.827 66.9426V96.214H12.2417V55.699L61.2767 8.56296L189.827 66.9426Z" fill="white"/>
<path d="M189.826 96.7698H12.2415C11.9334 96.7698 11.6836 96.521 11.6836 96.214V55.699C11.6836 55.5488 11.7452 55.4033 11.8539 55.2983L60.8906 8.16389C61.056 8.00555 61.3025 7.96355 61.5101 8.05887L190.058 66.4385C190.258 66.529 190.384 66.7261 190.384 66.9442V96.2156C190.384 96.521 190.135 96.7698 189.826 96.7698ZM12.7995 95.6582H189.269V67.2997L61.3917 9.2254L12.7995 55.9349V95.6582Z" fill="#1B1B1B"/>
<path d="M204.307 66.4579L201.513 72.2469L189.826 66.9426L61.2765 8.56296L12.2415 55.699L5.65307 62.0325L1.09375 57.4892L12.2415 46.7691L54.6054 6.05218L56.7172 4.02127L59.9627 0.907837L64.0728 2.77396L71.2905 6.05218L189.826 59.8804L204.307 66.4579Z" fill="white"/>
<path d="M201.513 72.8027C201.435 72.8027 201.357 72.7865 201.281 72.7526L189.594 67.4483L61.3917 9.2254L6.04076 62.4332C5.82179 62.6432 5.47307 62.6416 5.25735 62.4267L0.69803 57.8834C0.592603 57.7784 0.53259 57.6346 0.534212 57.4844C0.535834 57.3357 0.597469 57.1935 0.704518 57.0901L11.8522 46.3684L56.3296 3.62058L59.5751 0.507154C59.7405 0.348817 59.9871 0.306807 60.1947 0.402133L204.539 65.9522C204.675 66.0136 204.781 66.1283 204.833 66.2689C204.883 66.4094 204.877 66.5645 204.812 66.6986L202.017 72.4876C201.92 72.6864 201.72 72.8027 201.513 72.8027ZM61.2765 8.00717C61.3544 8.00717 61.4339 8.02333 61.5085 8.05726L190.057 66.4369L201.245 71.515L203.556 66.7293L189.593 60.3861L60.0763 1.57028L54.9931 6.45288L12.6292 47.1698L1.89017 57.4973L5.66122 61.2538L60.8905 8.16389C60.9959 8.06049 61.1354 8.00717 61.2765 8.00717Z" fill="#1B1B1B"/>
<path d="M61.2767 96.7697C60.9685 96.7697 60.7188 96.5209 60.7188 96.214V8.56294C60.7188 8.25596 60.9685 8.00714 61.2767 8.00714C61.5849 8.00714 61.8347 8.25596 61.8347 8.56294V96.214C61.8363 96.5209 61.5865 96.7697 61.2767 96.7697Z" fill="#1B1B1B"/>
<path d="M27.8223 47.9001L52.4176 24.9218V47.9001H27.8223Z" fill="white"/>
<path d="M52.4175 48.4559H27.8221C27.5934 48.4559 27.3874 48.3169 27.3031 48.1037C27.2188 47.8904 27.2723 47.6497 27.4393 47.4929L52.0347 24.5163C52.1969 24.3644 52.4353 24.324 52.6397 24.4112C52.8441 24.4985 52.9754 24.7004 52.9754 24.9218V47.9001C52.9754 48.2071 52.7257 48.4559 52.4175 48.4559ZM29.2348 47.3427H51.8595V26.2063L29.2348 47.3427Z" fill="#1B1B1B"/>
<path d="M52.4176 53.3773H27.8223V88.5298H52.4176V53.3773Z" fill="white"/>
<path d="M52.4175 89.0856H27.8221C27.5139 89.0856 27.2642 88.8368 27.2642 88.5298V53.3773C27.2642 53.0703 27.5139 52.8215 27.8221 52.8215H52.4175C52.7257 52.8215 52.9754 53.0703 52.9754 53.3773V88.5298C52.9754 88.8368 52.7257 89.0856 52.4175 89.0856ZM28.3817 87.9724H51.8595V53.9331H28.3817V87.9724Z" fill="#1B1B1B"/>
<path d="M118.181 48.5076L70.1357 47.9001V24.9202L118.181 48.5076Z" fill="white"/>
<path d="M118.181 49.065C118.18 49.065 118.176 49.065 118.175 49.065L70.1291 48.4575C69.8226 48.4543 69.5776 48.2055 69.5776 47.9017V24.9202C69.5776 24.7279 69.6766 24.5486 69.8404 24.4484C70.0042 24.3466 70.2086 24.3369 70.3821 24.4226L118.374 47.9841C118.592 48.06 118.747 48.2669 118.747 48.5092C118.747 48.8162 118.498 49.065 118.189 49.065C118.186 49.0634 118.184 49.065 118.181 49.065ZM70.6952 47.3524L115.722 47.9227L70.6952 25.8137V47.3524Z" fill="#1B1B1B"/>
<path d="M101.032 53.3788H70.1357V88.5297H101.032V53.3788Z" fill="white"/>
<path d="M101.034 89.0872H70.1356C69.8274 89.0872 69.5776 88.8383 69.5776 88.5314V53.3789C69.5776 53.0719 69.8274 52.8231 70.1356 52.8231H101.032C101.34 52.8231 101.59 53.0719 101.59 53.3789V88.5314C101.592 88.8383 101.342 89.0872 101.034 89.0872ZM70.6952 87.9739H100.476V53.9347H70.6952V87.9739Z" fill="#1B1B1B"/>
<path d="M118.182 72.2469H104.663V96.214H118.182V72.2469Z" fill="white"/>
<path d="M118.181 96.7698H104.662C104.354 96.7698 104.104 96.521 104.104 96.214V72.2469C104.104 71.9399 104.354 71.6911 104.662 71.6911H118.181C118.49 71.6911 118.739 71.9399 118.739 72.2469V96.214C118.739 96.521 118.49 96.7698 118.181 96.7698ZM105.22 95.6582H117.624V72.8027H105.22V95.6582Z" fill="#1B1B1B"/>
<path d="M101.034 68.5809H70.1356C69.8274 68.5809 69.5776 68.3321 69.5776 68.0251C69.5776 67.7181 69.8274 67.4693 70.1356 67.4693H101.032C101.34 67.4693 101.59 67.7181 101.59 68.0251C101.592 68.3321 101.342 68.5809 101.034 68.5809Z" fill="#1B1B1B"/>
<path d="M85.5848 48.4575C85.2766 48.4575 85.0269 48.2087 85.0269 47.9017V31.9371C85.0269 31.6301 85.2766 31.3813 85.5848 31.3813C85.893 31.3813 86.1428 31.6301 86.1428 31.9371V47.9017C86.1428 48.2087 85.893 48.4575 85.5848 48.4575Z" fill="#1B1B1B"/>
<path d="M85.5848 89.0872C85.2766 89.0872 85.0269 88.8383 85.0269 88.5314V53.3789C85.0269 53.0719 85.2766 52.8231 85.5848 52.8231C85.893 52.8231 86.1428 53.0719 86.1428 53.3789V88.5314C86.1428 88.8383 85.893 89.0872 85.5848 89.0872Z" fill="#1B1B1B"/>
<path d="M52.4175 68.5809H27.8221C27.5139 68.5809 27.2642 68.3321 27.2642 68.0251C27.2642 67.7181 27.5139 67.4693 27.8221 67.4693H52.4175C52.7257 67.4693 52.9754 67.7181 52.9754 68.0251C52.9754 68.3321 52.7257 68.5809 52.4175 68.5809Z" fill="#1B1B1B"/>
<path d="M38.2479 48.4575C37.9397 48.4575 37.6899 48.2087 37.6899 47.9017V38.1591C37.6899 37.8521 37.9397 37.6033 38.2479 37.6033C38.5561 37.6033 38.8058 37.8521 38.8058 38.1591V47.9017C38.8075 48.2087 38.5577 48.4575 38.2479 48.4575Z" fill="#1B1B1B"/>
<path d="M38.2479 89.0872C37.9397 89.0872 37.6899 88.8383 37.6899 88.5314V53.3789C37.6899 53.0719 37.9397 52.8231 38.2479 52.8231C38.5561 52.8231 38.8058 53.0719 38.8058 53.3789V88.5314C38.8075 88.8383 38.5577 89.0872 38.2479 89.0872Z" fill="#1B1B1B"/>
<path d="M181.348 67.2253H126.583V96.2139H181.348V67.2253Z" fill="white"/>
<path d="M181.348 96.7697H126.583C126.275 96.7697 126.025 96.5209 126.025 96.2139V67.2253C126.025 66.9183 126.275 66.6695 126.583 66.6695H181.348C181.656 66.6695 181.906 66.9183 181.906 67.2253V96.2139C181.906 96.5209 181.656 96.7697 181.348 96.7697ZM127.141 95.6581H180.789V67.7811H127.141V95.6581Z" fill="#1B1B1B"/>
<path d="M180.946 96.7697H127.045C126.737 96.7697 126.487 96.5209 126.487 96.2139C126.487 95.907 126.737 95.6581 127.045 95.6581H180.946C181.254 95.6581 181.504 95.907 181.504 96.2139C181.504 96.5209 181.254 96.7697 180.946 96.7697Z" fill="#1B1B1B"/>
<path d="M180.946 87.1079H127.045C126.737 87.1079 126.487 86.8591 126.487 86.5521C126.487 86.2452 126.737 85.9963 127.045 85.9963H180.946C181.254 85.9963 181.504 86.2452 181.504 86.5521C181.504 86.8575 181.254 87.1079 180.946 87.1079Z" fill="#1B1B1B"/>
<path d="M180.946 77.4445H127.045C126.737 77.4445 126.487 77.1957 126.487 76.8887C126.487 76.5817 126.737 76.3329 127.045 76.3329H180.946C181.254 76.3329 181.504 76.5817 181.504 76.8887C181.504 77.1957 181.254 77.4445 180.946 77.4445Z" fill="#1B1B1B"/>
<path d="M180.946 67.7811H127.045C126.737 67.7811 126.487 67.5323 126.487 67.2253C126.487 66.9183 126.737 66.6695 127.045 66.6695H180.946C181.254 66.6695 181.504 66.9183 181.504 67.2253C181.504 67.5323 181.254 67.7811 180.946 67.7811Z" fill="#1B1B1B"/>
<path d="M118.182 53.3789H101.034V68.0235H118.182V53.3789Z" fill="white"/>
<path d="M118.181 68.5809H101.034C100.726 68.5809 100.476 68.3321 100.476 68.0251V53.3805C100.476 53.0736 100.726 52.8247 101.034 52.8247H118.181C118.49 52.8247 118.739 53.0736 118.739 53.3805V68.0251C118.739 68.3321 118.49 68.5809 118.181 68.5809ZM101.592 67.4677H117.623V53.9347H101.592V67.4677Z" fill="#1B1B1B"/>
<path d="M101.034 48.4575C100.726 48.4575 100.476 48.2087 100.476 47.9017V40.2918C100.476 39.9848 100.726 39.736 101.034 39.736C101.342 39.736 101.592 39.9848 101.592 40.2918V47.9017C101.592 48.2087 101.342 48.4575 101.034 48.4575Z" fill="#1B1B1B"/>
</svg>
