<svg width="140" height="92" viewBox="0 0 140 92" fill="none" xmlns="http://www.w3.org/2000/svg">
<path d="M61.9617 48.8652V54.6719H64.9412V91.2139H27.0831V54.6719H30.5265V48.8652H14.0166V11.643H106.93V48.8652H61.9617Z" fill="white"/>
<path d="M64.9413 91.7697H27.0832C26.775 91.7697 26.5252 91.5209 26.5252 91.2139V54.672C26.5252 54.365 26.775 54.1162 27.0832 54.1162H29.9687V49.4226H14.0167C13.7085 49.4226 13.4587 49.1738 13.4587 48.8668V11.643C13.4587 11.336 13.7085 11.0872 14.0167 11.0872H106.931C107.239 11.0872 107.489 11.336 107.489 11.643V48.8652C107.489 49.1722 107.239 49.421 106.931 49.421H62.5197V54.1145H64.9413C65.2495 54.1145 65.4993 54.3634 65.4993 54.6703V91.2123C65.4993 91.5209 65.2495 91.7697 64.9413 91.7697ZM27.6412 90.6581H64.3817V55.2278H61.9602C61.652 55.2278 61.4022 54.9789 61.4022 54.672V48.8652C61.4022 48.5582 61.652 48.3094 61.9602 48.3094H106.371V12.2004H14.5746V48.3094H30.5266C30.8348 48.3094 31.0846 48.5582 31.0846 48.8652V54.672C31.0846 54.9789 30.8348 55.2278 30.5266 55.2278H27.6412V90.6581Z" fill="#1B1B1B"/>
<path d="M27.0831 54.672H4.48926V91.214H27.0831V54.672Z" fill="white"/>
<path d="M27.0832 91.7698H4.48936C4.18119 91.7698 3.9314 91.5209 3.9314 91.214V54.672C3.9314 54.365 4.18119 54.1162 4.48936 54.1162H27.0832C27.3914 54.1162 27.6412 54.365 27.6412 54.672V91.214C27.6412 91.5209 27.3914 91.7698 27.0832 91.7698ZM5.0473 90.6582H26.5253V55.2278H5.0473V90.6582Z" fill="#1B1B1B"/>
<path d="M135.819 54.672H64.9414V91.214H135.819V54.672Z" fill="white"/>
<path d="M135.818 91.7698H64.9398C64.6316 91.7698 64.3818 91.5209 64.3818 91.214V54.672C64.3818 54.365 64.6316 54.1162 64.9398 54.1162H135.818C136.126 54.1162 136.376 54.365 136.376 54.672V91.214C136.377 91.5209 136.128 91.7698 135.818 91.7698ZM65.4994 90.6582H135.26V55.2278H65.4994V90.6582Z" fill="#1B1B1B"/>
<path d="M138.794 48.8652H61.9619V54.672H138.794V48.8652Z" fill="white"/>
<path d="M138.794 55.2278H61.9618C61.6536 55.2278 61.4038 54.9789 61.4038 54.672V48.8652C61.4038 48.5582 61.6536 48.3094 61.9618 48.3094H138.794C139.102 48.3094 139.352 48.5582 139.352 48.8652V54.672C139.352 54.9789 139.102 55.2278 138.794 55.2278ZM62.5197 54.1162H138.234V49.4226H62.5197V54.1162Z" fill="#1B1B1B"/>
<path d="M112.291 5.83948H8.65625V11.6446H112.291V5.83948Z" fill="white"/>
<path d="M112.291 12.2004H8.65609C8.34792 12.2004 8.09814 11.9516 8.09814 11.6446V5.83946C8.09814 5.53248 8.34792 5.28366 8.65609 5.28366H112.291C112.599 5.28366 112.849 5.53248 112.849 5.83946V11.6446C112.849 11.9516 112.599 12.2004 112.291 12.2004ZM9.21405 11.0888H111.732V6.39525H9.21405V11.0888Z" fill="#1B1B1B"/>
<path d="M30.5265 48.8652H1.04419V54.672H30.5265V48.8652Z" fill="white"/>
<path d="M30.5266 55.2278H1.04429C0.73612 55.2278 0.486328 54.9789 0.486328 54.672V48.8652C0.486328 48.5582 0.73612 48.3094 1.04429 48.3094H30.5266C30.8348 48.3094 31.0846 48.5582 31.0846 48.8652V54.672C31.0846 54.9789 30.8348 55.2278 30.5266 55.2278ZM1.60224 54.1162H29.967V49.4226H1.60224V54.1162Z" fill="#1B1B1B"/>
<path d="M58.2394 22.3905H34.1177V91.2123H58.2394V22.3905Z" fill="white"/>
<path d="M58.2393 91.7681H34.1175C33.8094 91.7681 33.5596 91.5193 33.5596 91.2123V22.3905C33.5596 22.0836 33.8094 21.8347 34.1175 21.8347H58.2393C58.5475 21.8347 58.7972 22.0836 58.7972 22.3905V91.2123C58.7989 91.5193 58.5491 91.7681 58.2393 91.7681ZM34.6771 90.6565H57.6813V22.9463H34.6771V90.6565Z" fill="#1B1B1B"/>
<path d="M92.8583 22.3905H68.7366V45.3058H92.8583V22.3905Z" fill="white"/>
<path d="M92.8584 45.8616H68.7367C68.4285 45.8616 68.1787 45.6128 68.1787 45.3058V22.3905C68.1787 22.0836 68.4285 21.8347 68.7367 21.8347H92.8584C93.1666 21.8347 93.4164 22.0836 93.4164 22.3905V45.3058C93.418 45.6128 93.1682 45.8616 92.8584 45.8616ZM69.2962 44.75H92.3005V22.9463H69.2962V44.75Z" fill="#1B1B1B"/>
<path d="M58.2393 35.1836H34.1175C33.8094 35.1836 33.5596 34.9347 33.5596 34.6278C33.5596 34.3208 33.8094 34.072 34.1175 34.072H58.2393C58.5475 34.072 58.7972 34.3208 58.7972 34.6278C58.7989 34.9347 58.5491 35.1836 58.2393 35.1836Z" fill="#1B1B1B"/>
<path d="M58.2393 56.3183H34.1175C33.8094 56.3183 33.5596 56.0695 33.5596 55.7626C33.5596 55.4556 33.8094 55.2068 34.1175 55.2068H58.2393C58.5475 55.2068 58.7972 55.4556 58.7972 55.7626C58.7989 56.0695 58.5491 56.3183 58.2393 56.3183Z" fill="#1B1B1B"/>
<path d="M58.2393 77.4548H34.1175C33.8094 77.4548 33.5596 77.206 33.5596 76.899C33.5596 76.592 33.8094 76.3432 34.1175 76.3432H58.2393C58.5475 76.3432 58.7972 76.592 58.7972 76.899C58.7989 77.206 58.5491 77.4548 58.2393 77.4548Z" fill="#1B1B1B"/>
<path d="M92.8584 35.1836H68.7367C68.4285 35.1836 68.1787 34.9347 68.1787 34.6278C68.1787 34.3208 68.4285 34.072 68.7367 34.072H92.8584C93.1666 34.072 93.4164 34.3208 93.4164 34.6278C93.418 34.9347 93.1682 35.1836 92.8584 35.1836Z" fill="#1B1B1B"/>
<path d="M97.6983 1.03116H73.875V5.83944H97.6983V1.03116Z" fill="white"/>
<path d="M97.6984 6.39525H73.8751C73.5669 6.39525 73.3171 6.14644 73.3171 5.83945V1.03117C73.3171 0.724188 73.5669 0.475372 73.8751 0.475372H97.6984C98.0066 0.475372 98.2564 0.724188 98.2564 1.03117V5.83945C98.2564 6.14644 98.0066 6.39525 97.6984 6.39525ZM74.433 5.28366H97.1405V1.58858H74.433V5.28366Z" fill="#1B1B1B"/>
<path d="M22.6163 64.7733H8.87988V91.2124H22.6163V64.7733Z" fill="white"/>
<path d="M22.6163 91.7682H8.87997C8.57179 91.7682 8.32202 91.5193 8.32202 91.2124V64.7733C8.32202 64.4663 8.57179 64.2175 8.87997 64.2175H22.6163C22.9245 64.2175 23.1743 64.4663 23.1743 64.7733V91.2124C23.1743 91.5193 22.9245 91.7682 22.6163 91.7682ZM9.43793 90.6566H22.0568V65.3291H9.43793V90.6566Z" fill="#1B1B1B"/>
<path d="M127.925 62.3255H75.4385V91.2108H127.925V62.3255Z" fill="white"/>
<path d="M127.925 91.7681H75.4386C75.1304 91.7681 74.8806 91.5193 74.8806 91.2123V62.3255C74.8806 62.0185 75.1304 61.7697 75.4386 61.7697H127.925C128.233 61.7697 128.483 62.0185 128.483 62.3255V91.2107C128.483 91.5193 128.233 91.7681 127.925 91.7681ZM75.9965 90.6565H127.367V62.8829H75.9965V90.6565Z" fill="#1B1B1B"/>
<path d="M22.6163 58.3218H8.87988V62.3271H22.6163V58.3218Z" fill="white"/>
<path d="M22.6163 62.8829H8.87997C8.57179 62.8829 8.32202 62.6341 8.32202 62.3271V58.3218C8.32202 58.0148 8.57179 57.766 8.87997 57.766H22.6163C22.9245 57.766 23.1743 58.0148 23.1743 58.3218V62.3271C23.1743 62.6341 22.9245 62.8829 22.6163 62.8829ZM9.43793 61.7697H22.0568V58.8776H9.43793V61.7697Z" fill="#1B1B1B"/>
<path d="M127.911 91.7681H75.6349C75.3267 91.7681 75.0769 91.5193 75.0769 91.2123C75.0769 90.9053 75.3267 90.6565 75.6349 90.6565H127.911C128.219 90.6565 128.469 90.9053 128.469 91.2123C128.469 91.5193 128.219 91.7681 127.911 91.7681Z" fill="#1B1B1B"/>
<path d="M127.911 82.1402H75.6349C75.3267 82.1402 75.0769 81.8914 75.0769 81.5845C75.0769 81.2775 75.3267 81.0287 75.6349 81.0287H127.911C128.219 81.0287 128.469 81.2775 128.469 81.5845C128.469 81.8914 128.219 82.1402 127.911 82.1402Z" fill="#1B1B1B"/>
<path d="M127.911 72.5108H75.6349C75.3267 72.5108 75.0769 72.2619 75.0769 71.955C75.0769 71.648 75.3267 71.3992 75.6349 71.3992H127.911C128.219 71.3992 128.469 71.648 128.469 71.955C128.469 72.2619 128.219 72.5108 127.911 72.5108Z" fill="#1B1B1B"/>
<path d="M127.911 62.8829H75.6349C75.3267 62.8829 75.0769 62.6341 75.0769 62.3271C75.0769 62.0201 75.3267 61.7713 75.6349 61.7713H127.911C128.219 61.7713 128.469 62.0201 128.469 62.3271C128.469 62.6341 128.219 62.8829 127.911 62.8829Z" fill="#1B1B1B"/>
</svg>
