<svg width="50" height="68" viewBox="0 0 50 68" fill="none" xmlns="http://www.w3.org/2000/svg">
<path d="M44.0102 26.1456C44.6529 27.1695 45.0179 28.3732 45.0179 29.6617C45.0179 33.3556 42.0112 36.3466 38.309 36.3466H38.2685C37.8691 40.2122 34.5907 43.2294 30.6047 43.2294C28.2894 43.2294 26.2072 42.2116 24.8002 40.6039C24.0865 42.2721 22.426 43.4415 20.4837 43.4415C18.436 43.4415 16.6884 42.1328 16.0558 40.305C11.273 39.9799 7.48982 36.0134 7.48982 31.1542C7.48982 30.5827 7.54254 30.0232 7.64391 29.4799C4.00261 27.7794 1.48047 24.0916 1.48047 19.8181C1.48047 13.9249 6.2693 9.15259 12.1874 9.15259C12.4875 9.15259 12.7875 9.16673 13.0815 9.19298V9.15259C13.0815 4.90737 16.5302 1.47202 20.7858 1.47202C24.6542 1.47202 27.8555 4.30957 28.409 8.01757C29.0619 7.67221 29.81 7.47227 30.6047 7.47227C32.5126 7.47227 34.1528 8.60123 34.8867 10.223C36.1741 9.53833 37.642 9.15259 39.2032 9.15259C44.286 9.15259 48.4078 13.2585 48.4078 18.3216C48.4078 21.6338 46.6459 24.5319 44.0102 26.1456Z" fill="white"/>
<path d="M20.4835 44.1383C18.3425 44.1383 16.4185 42.878 15.5629 40.9594C10.6098 40.398 6.79012 36.175 6.79012 31.1562C6.79012 30.7301 6.8185 30.3019 6.87324 29.8778C3.1549 27.9249 0.780762 24.0331 0.780762 19.8202C0.780762 13.5553 5.89601 8.45987 12.1852 8.45987C12.2602 8.45987 12.3352 8.46189 12.4122 8.46189C12.7832 4.14801 16.3962 0.779297 20.7836 0.779297C24.6154 0.779297 27.9688 3.41893 28.9197 7.05019C29.461 6.87246 30.0307 6.77955 30.6025 6.77955C32.4799 6.77955 34.2073 7.75099 35.1825 9.30811C36.4375 8.75271 37.8141 8.45987 39.2009 8.45987C44.6628 8.45987 49.105 12.8868 49.105 18.3257C49.105 21.557 47.558 24.5158 44.9365 26.3698C45.4495 27.3856 45.7171 28.5105 45.7171 29.6617C45.7171 33.5414 42.6982 36.7303 38.8806 37.0212C38.1791 40.9978 34.7223 43.9262 30.6065 43.9262C28.5061 43.9262 26.4989 43.1466 24.9642 41.7612C23.9748 43.2315 22.3062 44.1383 20.4835 44.1383ZM12.1852 9.85138C6.66644 9.85138 2.17565 14.3248 2.17565 19.8202C2.17565 23.6716 4.43828 27.218 7.93765 28.8519C8.22352 28.9851 8.38572 29.2962 8.32692 29.6072C8.23163 30.1202 8.185 30.6412 8.185 31.1562C8.185 35.5953 11.6621 39.3094 16.1002 39.6123C16.3799 39.6305 16.6212 39.8143 16.7124 40.0789C17.2659 41.6744 18.7804 42.7468 20.4815 42.7468C22.0872 42.7468 23.5287 41.7996 24.1552 40.3313C24.2505 40.1112 24.4512 39.9536 24.6884 39.9173C24.9277 39.8769 25.1649 39.9678 25.323 40.1475C26.651 41.6642 28.573 42.5347 30.6005 42.5347C34.2053 42.5347 37.2018 39.8426 37.5708 36.2739C37.6073 35.9205 37.9074 35.6499 38.2642 35.6499C41.6196 35.6499 44.3161 32.9638 44.3161 29.6597C44.3161 28.5408 44.0039 27.4523 43.4139 26.5132C43.3146 26.3576 43.2842 26.1658 43.3267 25.986C43.3693 25.8063 43.4829 25.6488 43.641 25.5518C46.1854 23.9927 47.706 21.2904 47.706 18.3236C47.706 13.6503 43.8904 9.84936 39.1989 9.84936C37.7857 9.84936 36.4436 10.1826 35.2109 10.837C35.0406 10.9278 34.8398 10.944 34.6574 10.8814C34.4749 10.8188 34.3249 10.6834 34.2458 10.5098C33.6031 9.08796 32.1717 8.16904 30.6005 8.16904C29.9517 8.16904 29.3069 8.33061 28.7311 8.63355C28.5325 8.74059 28.2912 8.7406 28.0905 8.63962C27.8877 8.53662 27.7478 8.34475 27.7154 8.12058C27.2085 4.72763 24.2262 2.16879 20.7815 2.16879C16.9172 2.16879 13.7747 5.30322 13.7747 9.15461C13.7747 9.3485 13.6915 9.5545 13.5476 9.68779C13.4036 9.81907 13.207 9.90591 13.0164 9.88773C12.7346 9.8635 12.4548 9.85138 12.1852 9.85138Z" fill="#1B1B1B"/>
<path d="M24.944 64.8574C24.5588 64.8574 24.2466 64.5464 24.2466 64.1627V28.248C24.2466 27.8643 24.5588 27.5533 24.944 27.5533C25.3292 27.5533 25.6415 27.8643 25.6415 28.248V64.1627C25.6415 64.5464 25.3292 64.8574 24.944 64.8574Z" fill="#1B1B1B"/>
<path d="M24.942 37.4069C24.8122 37.4069 24.6804 37.3706 24.5648 37.2958C24.2405 37.0878 24.1472 36.6576 24.356 36.3345L28.6765 29.6617C28.8853 29.3386 29.3192 29.2477 29.6416 29.4537C29.966 29.6617 30.0592 30.0919 29.8504 30.415L25.5299 37.0898C25.3961 37.2938 25.1711 37.4069 24.942 37.4069Z" fill="#1B1B1B"/>
<path d="M48.4076 66.2651C48.4076 66.5418 48.3873 66.8125 48.3468 67.075H15.7657C15.4899 66.3298 15.3379 65.524 15.3379 64.6858C15.3379 60.8748 18.4399 57.7848 22.2657 57.7848C22.3184 57.7848 22.361 57.7889 22.4137 57.7929C23.2247 55.7107 25.2481 54.2323 27.6283 54.2323C30.0855 54.2323 32.1698 55.8137 32.9199 58.007C33.2038 57.9161 33.5079 57.8595 33.8242 57.8595C35.3954 57.8595 36.6666 59.1299 36.6666 60.691C36.6666 60.9354 36.6342 61.1697 36.5795 61.3959C36.6058 61.3918 36.6403 61.3878 36.6666 61.3878C37.5547 61.3878 38.3697 61.6786 39.0347 62.1653C40.0302 61.2525 41.3541 60.691 42.8078 60.691C45.9037 60.691 48.4076 63.1873 48.4076 66.2651Z" fill="white"/>
<path d="M48.3469 67.7698H15.7659C15.4739 67.7698 15.2124 67.588 15.111 67.3154C14.7988 66.4691 14.6406 65.5846 14.6406 64.6858C14.6406 60.6002 17.8947 57.2577 21.9577 57.0961C22.9998 54.919 25.1773 53.5376 27.6285 53.5376C30.108 53.5376 32.3321 54.9857 33.3479 57.1991C35.4949 56.9002 37.3643 58.5907 37.3643 60.6931C37.3643 60.7112 37.3643 60.7274 37.3643 60.7456C37.9319 60.8304 38.4773 61.0182 38.9801 61.303C40.077 60.4568 41.4171 59.9963 42.8079 59.9963C46.2789 59.9963 49.1032 62.8096 49.1032 66.2672C49.1032 66.5721 49.0809 66.8791 49.0363 67.178C48.9856 67.5173 48.6916 67.7698 48.3469 67.7698ZM16.2727 66.3803H47.7083C47.7083 66.3419 47.7103 66.3035 47.7103 66.2672C47.7103 63.5771 45.5126 61.3878 42.81 61.3878C41.5895 61.3878 40.4156 61.8463 39.5093 62.6783C39.264 62.9045 38.8909 62.9247 38.6233 62.7268C38.0495 62.3067 37.3744 62.0846 36.6688 62.0846C36.4397 62.123 36.2147 62.0401 36.0566 61.8685C35.8984 61.6968 35.8477 61.4585 35.9025 61.2323C35.9491 61.0465 35.9694 60.8708 35.9694 60.6931C35.9694 59.2935 34.6373 58.1908 33.135 58.6694C32.7721 58.7866 32.3828 58.5907 32.2612 58.2312C31.584 56.254 29.7228 54.9271 27.6285 54.9271C25.5949 54.9271 23.8027 56.151 23.0647 58.0433C22.9552 58.3261 22.6795 58.5038 22.3713 58.4856L22.2659 58.4796C18.8314 58.4796 16.0355 61.2646 16.0355 64.6858C16.0355 65.2594 16.1146 65.8269 16.2727 66.3803Z" fill="#1B1B1B"/>
</svg>
