<svg width="148" height="133" viewBox="0 0 148 133" fill="none" xmlns="http://www.w3.org/2000/svg">
<path d="M122.845 31.6052V58.1961L112.205 46.6682V31.6052H122.845Z" fill="white"/>
<path d="M123.403 59.6244L111.645 46.8863V31.051H123.403V59.6244ZM112.763 46.4517L122.287 56.7711V32.1609H112.763V46.4517Z" fill="#1B1B1B"/>
<path d="M81.2008 72.8811V132.214H10.9214V72.8811L46.0595 35.2016L81.2008 72.8811Z" fill="white"/>
<path d="M81.7606 132.77H10.3652V72.663L46.0613 34.3841L81.7622 72.663V132.77H81.7606ZM11.4811 131.658H80.6431V73.0992L46.0597 36.0176L11.4811 73.0992V131.658Z" fill="#1B1B1B"/>
<path d="M81.201 76.0721V72.8811L46.0597 35.2017L10.9216 72.8811V76.0721H1.91162L46.0597 28.2365L90.211 76.0721H81.201Z" fill="white"/>
<path d="M91.4826 76.6279H80.6431V73.0992L46.0597 36.0176L11.4811 73.0992V76.6279H0.641602L46.0613 27.4157L91.4826 76.6279ZM81.7606 75.5147H88.9393L46.0597 29.0588L3.18482 75.5147H10.3652V72.6614L46.0613 34.3825L81.7622 72.6614V75.5147H81.7606Z" fill="#1B1B1B"/>
<path d="M81.2008 132.212H136.816V80.3036L70.5916 8.54767L49.271 31.7166L90.2108 76.0721H81.2008V132.212Z" fill="white"/>
<path d="M137.374 132.768H80.643V75.5147H88.9393L48.5137 31.7182L70.5918 7.72528L71.0038 8.17121L137.374 80.0871V132.768ZM81.7606 131.657H136.258V80.5201L70.5934 9.37005L50.0302 31.7166L91.4842 76.6279H81.7606V131.657Z" fill="#1B1B1B"/>
<path d="M136.817 83.4929V80.3036L116.416 58.1961L112.205 53.6318L98.647 38.9436L70.5936 8.54767L49.273 31.7166L46.0615 28.2364L67.3903 5.07555L70.6033 1.59213L101.876 35.4763L112.205 46.6682L122.845 58.1961L146.19 83.4929H136.817Z" fill="white"/>
<path d="M147.461 84.0504H136.26V80.5201L70.5935 9.37008L49.2728 32.539L45.3022 28.2381L70.6032 0.769775L147.461 84.0504ZM137.376 82.9371H144.918L70.6032 2.41454L46.8188 28.2365L49.2728 30.8943L70.5935 7.72531L137.376 80.0871V82.9371Z" fill="#1B1B1B"/>
<path d="M117.607 97.5785H99.0977V132.212H117.607V97.5785Z" fill="white"/>
<path d="M118.165 132.768H98.5396V97.0227H118.165V132.768ZM99.6571 131.657H117.049V98.1343H99.6571V131.657Z" fill="#1B1B1B"/>
<path d="M39.77 90.1997H23.2422V63.6055H39.77V90.1997ZM24.3597 89.0865H38.654V64.7187H24.3597V89.0865Z" fill="#1B1B1B"/>
<path d="M69.0282 90.1997H52.5005V63.6055H69.0282V90.1997ZM53.618 89.0865H67.9123V64.7187H53.618V89.0865Z" fill="#1B1B1B"/>
<path d="M70.9275 95.4281H14.8662V132.212H70.9275V95.4281Z" fill="white"/>
<path d="M71.4854 132.768H14.3081V94.8722H71.4854V132.768ZM15.4256 131.657H70.3694V95.9838H15.4256V131.657Z" fill="#1B1B1B"/>
<path d="M70.9274 132.768H14.866C14.5579 132.768 14.3081 132.519 14.3081 132.212C14.3081 131.905 14.5579 131.657 14.866 131.657H70.9274C71.2356 131.657 71.4854 131.905 71.4854 132.212C71.4854 132.519 71.2356 132.768 70.9274 132.768Z" fill="#1B1B1B"/>
<path d="M70.9274 123.572H14.866C14.5579 123.572 14.3081 123.323 14.3081 123.016C14.3081 122.709 14.5579 122.46 14.866 122.46H70.9274C71.2356 122.46 71.4854 122.709 71.4854 123.016C71.4854 123.323 71.2356 123.572 70.9274 123.572Z" fill="#1B1B1B"/>
<path d="M70.9274 114.377H14.866C14.5579 114.377 14.3081 114.128 14.3081 113.821C14.3081 113.514 14.5579 113.265 14.866 113.265H70.9274C71.2356 113.265 71.4854 113.514 71.4854 113.821C71.4854 114.126 71.2356 114.377 70.9274 114.377Z" fill="#1B1B1B"/>
<path d="M70.9274 105.18H14.866C14.5579 105.18 14.3081 104.932 14.3081 104.625C14.3081 104.318 14.5579 104.069 14.866 104.069H70.9274C71.2356 104.069 71.4854 104.318 71.4854 104.625C71.4854 104.932 71.2356 105.18 70.9274 105.18Z" fill="#1B1B1B"/>
<path d="M70.9274 95.9838H14.866C14.5579 95.9838 14.3081 95.735 14.3081 95.428C14.3081 95.121 14.5579 94.8722 14.866 94.8722H70.9274C71.2356 94.8722 71.4854 95.121 71.4854 95.428C71.4854 95.735 71.2356 95.9838 70.9274 95.9838Z" fill="#1B1B1B"/>
<path d="M96.8366 58.7552H77.6278C77.3196 58.7552 77.0698 58.5064 77.0698 58.1994V40.3994C77.0698 40.0924 77.3196 39.8436 77.6278 39.8436H96.8366C97.1448 39.8436 97.3946 40.0924 97.3946 40.3994V58.1978C97.3946 58.5064 97.1448 58.7552 96.8366 58.7552ZM78.1857 57.642H96.277V40.9552H78.1857V57.642Z" fill="#1B1B1B"/>
<path d="M78.186 29.5726H62.3281V29.0168C62.3281 24.417 65.8851 20.6734 70.2579 20.6734C74.629 20.6734 78.186 24.417 78.186 29.0168V29.5726ZM63.4651 28.4594H77.049C76.7814 24.732 73.8375 21.785 70.2562 21.785C66.6782 21.785 63.7343 24.732 63.4651 28.4594Z" fill="#1B1B1B"/>
<path d="M39.2121 77.2952H23.8003V78.4084H39.2121V77.2952Z" fill="#1B1B1B"/>
<path d="M68.4719 77.2952H53.0601V78.4084H68.4719V77.2952Z" fill="#1B1B1B"/>
<path d="M96.8368 48.7428H77.6279V49.856H96.8368V48.7428Z" fill="#1B1B1B"/>
<path d="M136.833 102.825V100.246L109.014 69.792L81.2011 100.246V102.825H74.0693L109.014 64.1629L143.964 102.825H136.833Z" fill="white"/>
<path d="M145.218 103.38H136.275V100.461L109.016 70.6176L81.7605 100.461V103.38H72.8154L109.014 63.3308L145.218 103.38ZM137.39 102.269H142.709L109.014 64.9934L75.323 102.269H80.643V100.031L80.789 99.8712L109.016 68.9647L137.392 100.031V102.269H137.39Z" fill="#1B1B1B"/>
<path d="M112.056 26.1716H122.329L124.339 29.0152H110.044L112.056 26.1716Z" fill="white"/>
<path d="M124.349 29.5726C124.347 29.5726 124.342 29.5726 124.34 29.5726H110.046C109.837 29.5726 109.647 29.4563 109.551 29.2721C109.456 29.0879 109.47 28.865 109.59 28.6953L111.6 25.8501C111.704 25.7014 111.874 25.6142 112.057 25.6142H122.331C122.513 25.6142 122.683 25.7014 122.788 25.8501L124.749 28.6258C124.848 28.726 124.908 28.8633 124.908 29.0152C124.907 29.3238 124.657 29.5726 124.349 29.5726ZM111.12 28.4594H123.263L122.039 26.7274H112.344L111.12 28.4594Z" fill="#1B1B1B"/>
<path d="M113.618 32.1609C113.309 32.1609 113.06 31.9121 113.06 31.6052V29.0152C113.06 28.7082 113.309 28.4594 113.618 28.4594C113.926 28.4594 114.175 28.7082 114.175 29.0152V31.6052C114.177 31.9121 113.927 32.1609 113.618 32.1609Z" fill="#1B1B1B"/>
<path d="M120.84 32.1609C120.532 32.1609 120.282 31.9121 120.282 31.6052V29.0152C120.282 28.7082 120.532 28.4594 120.84 28.4594C121.148 28.4594 121.398 28.7082 121.398 29.0152V31.6052C121.398 31.9121 121.148 32.1609 120.84 32.1609Z" fill="#1B1B1B"/>
</svg>
