<svg width="265" height="58" viewBox="0 0 265 58" fill="none" xmlns="http://www.w3.org/2000/svg">
<path d="M18.4703 48.1244C15.4985 42.3689 14.3877 36.3885 15.0391 30.1348C16.6481 14.706 28.2056 2.67547 43.5103 0.35892C62.2617 -2.48103 80.1098 11.8893 81.3834 30.8268C81.7653 36.5184 80.7398 41.9269 78.3554 47.1008C77.9115 48.0623 77.7176 48.0643 76.8783 47.3315C74.5966 45.3387 74.1682 43.468 75.1859 40.3392C79.0727 28.3765 74.6024 15.0763 64.809 7.92113C50.2234 -2.73304 30.0162 2.71424 22.6362 19.3624C19.2244 27.0544 18.9472 34.9133 21.9616 42.8283C22.1477 43.3168 22.4055 43.7724 21.9306 44.257C21.5332 44.6602 21.19 45.1158 20.812 45.5384C20.0599 46.3739 19.3019 47.2055 18.4703 48.1244Z" fill="#4F45E4"/>
<path d="M20.3818 49.6306C21.6516 47.8724 23.0047 46.6918 24.2259 45.393C31.9277 37.1911 39.6353 28.993 47.3333 20.7891C47.7423 20.353 47.9691 19.9575 48.6127 20.6476C57.2198 29.8809 65.8617 39.0792 74.4921 48.2892C74.7402 48.5528 74.9573 48.8455 75.4517 49.4445C72.7338 49.0956 70.3746 48.8416 68.0348 48.4675C67.3253 48.3531 66.9512 47.5913 66.4763 47.0776C60.6607 40.8006 54.8334 34.5353 49.0624 28.2176C48.2289 27.3065 47.8159 27.2542 46.9417 28.1982C40.9051 34.7214 34.7929 41.1728 28.7311 47.6747C28.0797 48.3725 27.4187 48.7486 26.4397 48.83C24.5187 48.9929 22.6111 49.3243 20.3818 49.6306Z" fill="#4F45E4"/>
<path d="M0 57.5514C13.3991 51.3539 40.0656 47.7851 59.4257 49.3727C71.9893 50.404 84.299 52.4725 96 57.4312C63.9851 49.9873 31.9916 50.751 0 57.5514Z" fill="#4F45E4"/>
<path d="M28.5158 37.1329C28.5158 34.5954 28.4925 32.0559 28.5255 29.5184C28.541 28.2777 30.5571 26.4884 31.8946 26.4768C34.0154 26.4613 36.1342 26.4729 38.6698 26.4729C35.4848 30.4547 32.0207 33.7424 28.5158 37.1329Z" fill="#4F45E4"/>
<path d="M67.6625 37.6912C65.5902 35.7062 63.7467 34.0487 62.4886 32.0036C61.9148 31.0712 62.3451 29.5145 62.3529 28.2409C62.3529 28.1149 62.5545 27.9404 62.7018 27.8765C62.8646 27.8047 63.0721 27.8338 63.2601 27.8222C67.6586 27.5256 67.6606 27.5256 67.6625 31.8989C67.6625 33.6765 67.6625 35.4561 67.6625 37.6912Z" fill="#4F45E4"/>
<path d="M60.2284 29.9196C57.7684 27.2987 55.3103 24.6797 52.5886 21.7816C55.3084 21.7816 57.7141 21.7777 60.1179 21.7855C60.4765 21.7874 60.5734 22.0569 60.5734 22.369C60.5754 24.8445 60.5734 27.3181 60.5734 29.7936C60.4591 29.8343 60.3447 29.8769 60.2284 29.9196Z" fill="#4F45E4"/>
<path d="M50.1848 40.5951C51.3537 40.3392 51.9837 40.5273 51.8054 41.7951C51.691 42.6112 52.1388 43.7801 50.5822 43.4273C49.8572 43.2625 48.5293 44.1407 48.6475 42.334C48.7212 41.1941 48.444 39.8953 50.1848 40.5951Z" fill="#4F45E4"/>
<path d="M45.9122 43.3846C44.3536 43.813 44.5184 42.836 44.4214 41.8318C44.2857 40.4264 45.0495 40.5233 46.0227 40.4904C47.114 40.4535 47.5793 40.6396 47.5793 41.9152C47.5793 43.2877 47.1548 43.7335 45.9122 43.3846Z" fill="#4F45E4"/>
<path d="M49.9501 39.4436C48.7056 39.7964 48.7405 38.8931 48.6435 37.7765C48.5001 36.1384 49.5585 36.6075 50.4153 36.4738C52.1038 36.2101 51.6909 37.3771 51.8188 38.2999C52.0263 39.8255 50.9601 39.3583 49.9501 39.4436Z" fill="#4F45E4"/>
<path d="M47.4613 37.7959C47.7831 39.118 47.2713 39.5192 46.0112 39.4165C45.0827 39.3409 44.317 39.5192 44.3829 38.0944C44.4391 36.8731 44.6523 36.2974 46.0132 36.4486C46.9534 36.5552 47.9575 36.3633 47.4613 37.7959Z" fill="#4F45E4"/>
<path d="M98.448 42.2758V16.9458H103.072V38.1958H113.918V42.2758H98.448ZM125.307 42.6838C123.403 42.6838 121.737 42.2531 120.309 41.3918C118.881 40.5304 117.77 39.3631 116.977 37.8898C116.184 36.4164 115.787 34.7844 115.787 32.9938C115.787 31.1351 116.184 29.4918 116.977 28.0638C117.793 26.6131 118.892 25.4684 120.275 24.6298C121.68 23.7911 123.244 23.3718 124.967 23.3718C126.418 23.3718 127.687 23.6098 128.775 24.0858C129.886 24.5618 130.826 25.2191 131.597 26.0578C132.368 26.8964 132.957 27.8598 133.365 28.9478C133.773 30.0131 133.977 31.1691 133.977 32.4158C133.977 32.7331 133.954 33.0618 133.909 33.4018C133.886 33.7418 133.83 34.0364 133.739 34.2858H119.459V30.8858H131.223L129.115 32.4838C129.319 31.4411 129.262 30.5118 128.945 29.6958C128.65 28.8798 128.152 28.2338 127.449 27.7578C126.769 27.2818 125.942 27.0438 124.967 27.0438C124.038 27.0438 123.21 27.2818 122.485 27.7578C121.76 28.2111 121.204 28.8911 120.819 29.7978C120.456 30.6818 120.32 31.7584 120.411 33.0278C120.32 34.1611 120.468 35.1698 120.853 36.0538C121.261 36.9151 121.85 37.5838 122.621 38.0598C123.414 38.5358 124.321 38.7738 125.341 38.7738C126.361 38.7738 127.222 38.5584 127.925 38.1278C128.65 37.6971 129.217 37.1191 129.625 36.3938L133.229 38.1618C132.866 39.0458 132.3 39.8278 131.529 40.5078C130.758 41.1878 129.84 41.7204 128.775 42.1058C127.732 42.4911 126.576 42.6838 125.307 42.6838ZM142.897 42.6838C141.605 42.6838 140.483 42.4684 139.531 42.0378C138.579 41.6071 137.842 40.9951 137.321 40.2018C136.8 39.3858 136.539 38.4451 136.539 37.3798C136.539 36.3598 136.766 35.4531 137.219 34.6598C137.672 33.8438 138.375 33.1638 139.327 32.6198C140.279 32.0758 141.48 31.6904 142.931 31.4638L148.983 30.4778V33.8778L143.781 34.7618C142.897 34.9204 142.24 35.2038 141.809 35.6118C141.378 36.0198 141.163 36.5524 141.163 37.2098C141.163 37.8444 141.401 38.3544 141.877 38.7398C142.376 39.1024 142.988 39.2838 143.713 39.2838C144.642 39.2838 145.458 39.0911 146.161 38.7058C146.886 38.2978 147.442 37.7424 147.827 37.0398C148.235 36.3371 148.439 35.5664 148.439 34.7278V29.9678C148.439 29.1744 148.122 28.5171 147.487 27.9958C146.875 27.4518 146.059 27.1798 145.039 27.1798C144.087 27.1798 143.237 27.4404 142.489 27.9618C141.764 28.4604 141.231 29.1291 140.891 29.9678L137.253 28.1998C137.616 27.2251 138.182 26.3864 138.953 25.6838C139.746 24.9584 140.676 24.3918 141.741 23.9838C142.806 23.5758 143.962 23.3718 145.209 23.3718C146.728 23.3718 148.065 23.6551 149.221 24.2218C150.377 24.7658 151.272 25.5364 151.907 26.5338C152.564 27.5084 152.893 28.6531 152.893 29.9678V42.2758H148.677V39.1138L149.629 39.0458C149.153 39.8391 148.586 40.5078 147.929 41.0518C147.272 41.5731 146.524 41.9811 145.685 42.2758C144.846 42.5478 143.917 42.6838 142.897 42.6838ZM164.048 42.6838C162.076 42.6838 160.353 42.2191 158.88 41.2898C157.429 40.3378 156.432 39.0571 155.888 37.4478L159.22 35.8498C159.696 36.8924 160.353 37.7084 161.192 38.2978C162.053 38.8871 163.005 39.1818 164.048 39.1818C164.864 39.1818 165.51 39.0004 165.986 38.6378C166.462 38.2751 166.7 37.7991 166.7 37.2098C166.7 36.8471 166.598 36.5524 166.394 36.3258C166.212 36.0764 165.952 35.8724 165.612 35.7138C165.294 35.5324 164.943 35.3851 164.558 35.2718L161.532 34.4218C159.968 33.9684 158.778 33.2771 157.962 32.3478C157.168 31.4184 156.772 30.3191 156.772 29.0498C156.772 27.9164 157.055 26.9304 157.622 26.0918C158.211 25.2304 159.016 24.5618 160.036 24.0858C161.078 23.6098 162.268 23.3718 163.606 23.3718C165.351 23.3718 166.892 23.7911 168.23 24.6298C169.567 25.4684 170.519 26.6471 171.086 28.1658L167.686 29.7638C167.368 28.9251 166.836 28.2564 166.088 27.7578C165.34 27.2591 164.501 27.0098 163.572 27.0098C162.824 27.0098 162.234 27.1798 161.804 27.5198C161.373 27.8598 161.158 28.3018 161.158 28.8458C161.158 29.1858 161.248 29.4804 161.43 29.7298C161.611 29.9791 161.86 30.1831 162.178 30.3418C162.518 30.5004 162.903 30.6478 163.334 30.7838L166.292 31.6678C167.81 32.1211 168.978 32.8011 169.794 33.7078C170.632 34.6144 171.052 35.7251 171.052 37.0398C171.052 38.1504 170.757 39.1364 170.168 39.9978C169.578 40.8364 168.762 41.4938 167.72 41.9698C166.677 42.4458 165.453 42.6838 164.048 42.6838ZM183.246 42.6838C181.342 42.6838 179.676 42.2531 178.248 41.3918C176.82 40.5304 175.71 39.3631 174.916 37.8898C174.123 36.4164 173.726 34.7844 173.726 32.9938C173.726 31.1351 174.123 29.4918 174.916 28.0638C175.732 26.6131 176.832 25.4684 178.214 24.6298C179.62 23.7911 181.184 23.3718 182.906 23.3718C184.357 23.3718 185.626 23.6098 186.714 24.0858C187.825 24.5618 188.766 25.2191 189.536 26.0578C190.307 26.8964 190.896 27.8598 191.304 28.9478C191.712 30.0131 191.916 31.1691 191.916 32.4158C191.916 32.7331 191.894 33.0618 191.848 33.4018C191.826 33.7418 191.769 34.0364 191.678 34.2858H177.398V30.8858H189.162L187.054 32.4838C187.258 31.4411 187.202 30.5118 186.884 29.6958C186.59 28.8798 186.091 28.2338 185.388 27.7578C184.708 27.2818 183.881 27.0438 182.906 27.0438C181.977 27.0438 181.15 27.2818 180.424 27.7578C179.699 28.2111 179.144 28.8911 178.758 29.7978C178.396 30.6818 178.26 31.7584 178.35 33.0278C178.26 34.1611 178.407 35.1698 178.792 36.0538C179.2 36.9151 179.79 37.5838 180.56 38.0598C181.354 38.5358 182.26 38.7738 183.28 38.7738C184.3 38.7738 185.162 38.5584 185.864 38.1278C186.59 37.6971 187.156 37.1191 187.564 36.3938L191.168 38.1618C190.806 39.0458 190.239 39.8278 189.468 40.5078C188.698 41.1878 187.78 41.7204 186.714 42.1058C185.672 42.4911 184.516 42.6838 183.246 42.6838ZM207.669 42.6838C205.855 42.6838 204.178 42.3551 202.637 41.6978C201.095 41.0404 199.747 40.1224 198.591 38.9438C197.435 37.7651 196.528 36.3824 195.871 34.7958C195.236 33.2091 194.919 31.4751 194.919 29.5938C194.919 27.7124 195.225 25.9784 195.837 24.3918C196.471 22.7824 197.355 21.3998 198.489 20.2438C199.645 19.0651 200.993 18.1584 202.535 17.5238C204.076 16.8664 205.753 16.5378 207.567 16.5378C209.38 16.5378 211.001 16.8438 212.429 17.4558C213.879 18.0678 215.103 18.8838 216.101 19.9038C217.098 20.9011 217.812 22.0004 218.243 23.2018L214.129 25.1738C213.653 23.8591 212.848 22.7938 211.715 21.9778C210.581 21.1618 209.199 20.7538 207.567 20.7538C205.98 20.7538 204.575 21.1278 203.351 21.8758C202.149 22.6238 201.209 23.6551 200.529 24.9698C199.871 26.2844 199.543 27.8258 199.543 29.5938C199.543 31.3618 199.883 32.9144 200.563 34.2518C201.265 35.5664 202.229 36.5978 203.453 37.3458C204.677 38.0938 206.082 38.4678 207.669 38.4678C208.961 38.4678 210.151 38.2184 211.239 37.7198C212.327 37.1984 213.199 36.4731 213.857 35.5438C214.514 34.5918 214.843 33.4698 214.843 32.1778V30.2398L216.951 32.0758H207.567V28.1658H219.467V30.7158C219.467 32.6651 219.138 34.3878 218.481 35.8838C217.823 37.3798 216.928 38.6378 215.795 39.6578C214.684 40.6551 213.426 41.4144 212.021 41.9358C210.615 42.4344 209.165 42.6838 207.669 42.6838ZM222.752 42.2758V23.7798H226.934V27.8938L226.594 27.2818C227.024 25.8991 227.693 24.9358 228.6 24.3918C229.529 23.8478 230.64 23.5758 231.932 23.5758H233.02V27.5198H231.422C230.152 27.5198 229.132 27.9164 228.362 28.7098C227.591 29.4804 227.206 30.5684 227.206 31.9738V42.2758H222.752ZM235.469 42.2758V23.7798H239.923V42.2758H235.469ZM235.469 21.7058V16.9458H239.923V21.7058H235.469ZM252.637 42.6838C250.846 42.6838 249.248 42.2644 247.843 41.4258C246.438 40.5644 245.327 39.3971 244.511 37.9238C243.695 36.4504 243.287 34.8184 243.287 33.0278C243.287 31.2144 243.695 29.5824 244.511 28.1318C245.327 26.6811 246.438 25.5251 247.843 24.6638C249.271 23.8024 250.858 23.3718 252.603 23.3718C254.008 23.3718 255.255 23.6551 256.343 24.2218C257.454 24.7658 258.326 25.5364 258.961 26.5338L258.281 27.4518V16.5378H262.735V42.2758H258.519V38.7058L258.995 39.5898C258.36 40.5871 257.476 41.3578 256.343 41.9018C255.21 42.4231 253.974 42.6838 252.637 42.6838ZM253.113 38.6038C254.133 38.6038 255.028 38.3658 255.799 37.8898C256.57 37.4138 257.17 36.7564 257.601 35.9178C258.054 35.0791 258.281 34.1158 258.281 33.0278C258.281 31.9624 258.054 31.0104 257.601 30.1718C257.17 29.3104 256.57 28.6418 255.799 28.1658C255.028 27.6898 254.133 27.4518 253.113 27.4518C252.116 27.4518 251.22 27.7011 250.427 28.1998C249.634 28.6758 249.01 29.3331 248.557 30.1718C248.126 30.9878 247.911 31.9398 247.911 33.0278C247.911 34.1158 248.126 35.0791 248.557 35.9178C249.01 36.7564 249.634 37.4138 250.427 37.8898C251.22 38.3658 252.116 38.6038 253.113 38.6038Z" fill="#1B1B1B"/>
</svg>
