<svg width="337" height="59" viewBox="0 0 337 59" fill="none" xmlns="http://www.w3.org/2000/svg">
<path d="M18.4703 48.8939C15.4985 43.1384 14.3877 37.158 15.0391 30.9043C16.6481 15.4755 28.2056 3.445 43.5103 1.12845C62.2617 -1.7115 80.1098 12.6588 81.3834 31.5964C81.7653 37.2879 80.7398 42.6964 78.3554 47.8703C77.9115 48.8319 77.7176 48.8338 76.8783 48.101C74.5966 46.1082 74.1682 44.2375 75.1859 41.1087C79.0727 29.1461 74.6024 15.8458 64.809 8.69067C50.2234 -1.96351 30.0162 3.48377 22.6362 20.1319C19.2244 27.824 18.9472 35.6828 21.9616 43.5978C22.1477 44.0863 22.4055 44.5419 21.9306 45.0265C21.5332 45.4297 21.19 45.8853 20.812 46.3079C20.0599 47.1434 19.3019 47.975 18.4703 48.8939Z" fill="white"/>
<path d="M20.3818 50.4C21.6516 48.6418 23.0047 47.4612 24.2259 46.1624C31.9277 37.9605 39.6353 29.7624 47.3333 21.5586C47.7423 21.1224 47.9691 20.7269 48.6127 21.417C57.2198 30.6503 65.8617 39.8486 74.4921 49.0586C74.7402 49.3222 74.9573 49.6149 75.4517 50.2139C72.7338 49.865 70.3746 49.6111 68.0348 49.2369C67.3253 49.1225 66.9512 48.3607 66.4763 47.847C60.6607 41.57 54.8334 35.3047 49.0624 28.987C48.2289 28.0759 47.8159 28.0236 46.9417 28.9676C40.9051 35.4908 34.7929 41.9422 28.7311 48.4441C28.0797 49.1419 27.4187 49.518 26.4397 49.5994C24.5187 49.7623 22.6111 50.0938 20.3818 50.4Z" fill="white"/>
<path d="M0 58.3212C13.3991 52.1237 40.0656 48.5549 59.4257 50.1425C71.9893 51.1738 84.299 53.2422 96 58.201C63.9851 50.757 31.9916 51.5208 0 58.3212Z" fill="white"/>
<path d="M28.5158 37.9025C28.5158 35.3649 28.4925 32.8254 28.5255 30.2879C28.541 29.0472 30.5571 27.258 31.8946 27.2463C34.0154 27.2308 36.1342 27.2425 38.6698 27.2425C35.4848 31.2242 32.0207 34.512 28.5158 37.9025Z" fill="white"/>
<path d="M67.6625 38.4609C65.5902 36.4758 63.7467 34.8184 62.4886 32.7732C61.9148 31.8408 62.3451 30.2842 62.3529 29.0106C62.3529 28.8845 62.5545 28.7101 62.7018 28.6461C62.8646 28.5744 63.0721 28.6035 63.2601 28.5918C67.6586 28.2952 67.6606 28.2952 67.6625 32.6686C67.6625 34.4462 67.6625 36.2258 67.6625 38.4609Z" fill="white"/>
<path d="M60.2284 30.6892C57.7684 28.0683 55.3103 25.4494 52.5886 22.5513C55.3084 22.5513 57.7141 22.5474 60.1179 22.5551C60.4765 22.5571 60.5734 22.8265 60.5734 23.1386C60.5754 25.6141 60.5734 28.0877 60.5734 30.5632C60.4591 30.6039 60.3447 30.6466 60.2284 30.6892Z" fill="white"/>
<path d="M50.1848 41.3644C51.3537 41.1085 51.9837 41.2965 51.8054 42.5643C51.691 43.3805 52.1388 44.5494 50.5822 44.1966C49.8572 44.0318 48.5293 44.91 48.6475 43.1033C48.7212 41.9634 48.444 40.6646 50.1848 41.3644Z" fill="white"/>
<path d="M45.9122 44.1543C44.3536 44.5827 44.5184 43.6056 44.4214 42.6015C44.2857 41.1961 45.0495 41.293 46.0227 41.26C47.114 41.2232 47.5793 41.4093 47.5793 42.6848C47.5793 44.0573 47.1548 44.5032 45.9122 44.1543Z" fill="white"/>
<path d="M49.9501 40.2133C48.7056 40.5661 48.7405 39.6627 48.6435 38.5461C48.5001 36.9081 49.5585 37.3772 50.4153 37.2434C52.1038 36.9798 51.6909 38.1468 51.8188 39.0695C52.0263 40.5952 50.9601 40.128 49.9501 40.2133Z" fill="white"/>
<path d="M47.4613 38.5653C47.7831 39.8874 47.2713 40.2887 46.0112 40.1859C45.0827 40.1103 44.317 40.2887 44.3829 38.8638C44.4391 37.6426 44.6523 37.0668 46.0132 37.218C46.9534 37.3246 47.9575 37.1327 47.4613 38.5653Z" fill="white"/>
<path d="M98.448 43.0454V17.7154H103.072V38.9654H113.918V43.0454H98.448ZM125.307 43.4534C123.403 43.4534 121.737 43.0227 120.309 42.1614C118.881 41.3001 117.77 40.1327 116.977 38.6594C116.184 37.1861 115.787 35.5541 115.787 33.7634C115.787 31.9047 116.184 30.2614 116.977 28.8334C117.793 27.3827 118.892 26.2381 120.275 25.3994C121.68 24.5607 123.244 24.1414 124.967 24.1414C126.418 24.1414 127.687 24.3794 128.775 24.8554C129.886 25.3314 130.826 25.9887 131.597 26.8274C132.368 27.6661 132.957 28.6294 133.365 29.7174C133.773 30.7827 133.977 31.9387 133.977 33.1854C133.977 33.5027 133.954 33.8314 133.909 34.1714C133.886 34.5114 133.83 34.8061 133.739 35.0554H119.459V31.6554H131.223L129.115 33.2534C129.319 32.2107 129.262 31.2814 128.945 30.4654C128.65 29.6494 128.152 29.0034 127.449 28.5274C126.769 28.0514 125.942 27.8134 124.967 27.8134C124.038 27.8134 123.21 28.0514 122.485 28.5274C121.76 28.9807 121.204 29.6607 120.819 30.5674C120.456 31.4514 120.32 32.5281 120.411 33.7974C120.32 34.9307 120.468 35.9394 120.853 36.8234C121.261 37.6847 121.85 38.3534 122.621 38.8294C123.414 39.3054 124.321 39.5434 125.341 39.5434C126.361 39.5434 127.222 39.3281 127.925 38.8974C128.65 38.4667 129.217 37.8887 129.625 37.1634L133.229 38.9314C132.866 39.8154 132.3 40.5974 131.529 41.2774C130.758 41.9574 129.84 42.4901 128.775 42.8754C127.732 43.2607 126.576 43.4534 125.307 43.4534ZM142.897 43.4534C141.605 43.4534 140.483 43.2381 139.531 42.8074C138.579 42.3767 137.842 41.7647 137.321 40.9714C136.8 40.1554 136.539 39.2147 136.539 38.1494C136.539 37.1294 136.766 36.2227 137.219 35.4294C137.672 34.6134 138.375 33.9334 139.327 33.3894C140.279 32.8454 141.48 32.4601 142.931 32.2334L148.983 31.2474V34.6474L143.781 35.5314C142.897 35.6901 142.24 35.9734 141.809 36.3814C141.378 36.7894 141.163 37.3221 141.163 37.9794C141.163 38.6141 141.401 39.1241 141.877 39.5094C142.376 39.8721 142.988 40.0534 143.713 40.0534C144.642 40.0534 145.458 39.8607 146.161 39.4754C146.886 39.0674 147.442 38.5121 147.827 37.8094C148.235 37.1067 148.439 36.3361 148.439 35.4974V30.7374C148.439 29.9441 148.122 29.2867 147.487 28.7654C146.875 28.2214 146.059 27.9494 145.039 27.9494C144.087 27.9494 143.237 28.2101 142.489 28.7314C141.764 29.2301 141.231 29.8987 140.891 30.7374L137.253 28.9694C137.616 27.9947 138.182 27.1561 138.953 26.4534C139.746 25.7281 140.676 25.1614 141.741 24.7534C142.806 24.3454 143.962 24.1414 145.209 24.1414C146.728 24.1414 148.065 24.4247 149.221 24.9914C150.377 25.5354 151.272 26.3061 151.907 27.3034C152.564 28.2781 152.893 29.4227 152.893 30.7374V43.0454H148.677V39.8834L149.629 39.8154C149.153 40.6087 148.586 41.2774 147.929 41.8214C147.272 42.3427 146.524 42.7507 145.685 43.0454C144.846 43.3174 143.917 43.4534 142.897 43.4534ZM164.048 43.4534C162.076 43.4534 160.353 42.9887 158.88 42.0594C157.429 41.1074 156.432 39.8267 155.888 38.2174L159.22 36.6194C159.696 37.6621 160.353 38.4781 161.192 39.0674C162.053 39.6567 163.005 39.9514 164.048 39.9514C164.864 39.9514 165.51 39.7701 165.986 39.4074C166.462 39.0447 166.7 38.5687 166.7 37.9794C166.7 37.6167 166.598 37.3221 166.394 37.0954C166.212 36.8461 165.952 36.6421 165.612 36.4834C165.294 36.3021 164.943 36.1547 164.558 36.0414L161.532 35.1914C159.968 34.7381 158.778 34.0467 157.962 33.1174C157.168 32.1881 156.772 31.0887 156.772 29.8194C156.772 28.6861 157.055 27.7001 157.622 26.8614C158.211 26.0001 159.016 25.3314 160.036 24.8554C161.078 24.3794 162.268 24.1414 163.606 24.1414C165.351 24.1414 166.892 24.5607 168.23 25.3994C169.567 26.2381 170.519 27.4167 171.086 28.9354L167.686 30.5334C167.368 29.6947 166.836 29.0261 166.088 28.5274C165.34 28.0287 164.501 27.7794 163.572 27.7794C162.824 27.7794 162.234 27.9494 161.804 28.2894C161.373 28.6294 161.158 29.0714 161.158 29.6154C161.158 29.9554 161.248 30.2501 161.43 30.4994C161.611 30.7487 161.86 30.9527 162.178 31.1114C162.518 31.2701 162.903 31.4174 163.334 31.5534L166.292 32.4374C167.81 32.8907 168.978 33.5707 169.794 34.4774C170.632 35.3841 171.052 36.4947 171.052 37.8094C171.052 38.9201 170.757 39.9061 170.168 40.7674C169.578 41.6061 168.762 42.2634 167.72 42.7394C166.677 43.2154 165.453 43.4534 164.048 43.4534ZM183.246 43.4534C181.342 43.4534 179.676 43.0227 178.248 42.1614C176.82 41.3001 175.71 40.1327 174.916 38.6594C174.123 37.1861 173.726 35.5541 173.726 33.7634C173.726 31.9047 174.123 30.2614 174.916 28.8334C175.732 27.3827 176.832 26.2381 178.214 25.3994C179.62 24.5607 181.184 24.1414 182.906 24.1414C184.357 24.1414 185.626 24.3794 186.714 24.8554C187.825 25.3314 188.766 25.9887 189.536 26.8274C190.307 27.6661 190.896 28.6294 191.304 29.7174C191.712 30.7827 191.916 31.9387 191.916 33.1854C191.916 33.5027 191.894 33.8314 191.848 34.1714C191.826 34.5114 191.769 34.8061 191.678 35.0554H177.398V31.6554H189.162L187.054 33.2534C187.258 32.2107 187.202 31.2814 186.884 30.4654C186.59 29.6494 186.091 29.0034 185.388 28.5274C184.708 28.0514 183.881 27.8134 182.906 27.8134C181.977 27.8134 181.15 28.0514 180.424 28.5274C179.699 28.9807 179.144 29.6607 178.758 30.5674C178.396 31.4514 178.26 32.5281 178.35 33.7974C178.26 34.9307 178.407 35.9394 178.792 36.8234C179.2 37.6847 179.79 38.3534 180.56 38.8294C181.354 39.3054 182.26 39.5434 183.28 39.5434C184.3 39.5434 185.162 39.3281 185.864 38.8974C186.59 38.4667 187.156 37.8887 187.564 37.1634L191.168 38.9314C190.806 39.8154 190.239 40.5974 189.468 41.2774C188.698 41.9574 187.78 42.4901 186.714 42.8754C185.672 43.2607 184.516 43.4534 183.246 43.4534ZM207.669 43.4534C205.855 43.4534 204.178 43.1247 202.637 42.4674C201.095 41.8101 199.747 40.8921 198.591 39.7134C197.435 38.5347 196.528 37.1521 195.871 35.5654C195.236 33.9787 194.919 32.2447 194.919 30.3634C194.919 28.4821 195.225 26.7481 195.837 25.1614C196.471 23.5521 197.355 22.1694 198.489 21.0134C199.645 19.8347 200.993 18.9281 202.535 18.2934C204.076 17.6361 205.753 17.3074 207.567 17.3074C209.38 17.3074 211.001 17.6134 212.429 18.2254C213.879 18.8374 215.103 19.6534 216.101 20.6734C217.098 21.6707 217.812 22.7701 218.243 23.9714L214.129 25.9434C213.653 24.6287 212.848 23.5634 211.715 22.7474C210.581 21.9314 209.199 21.5234 207.567 21.5234C205.98 21.5234 204.575 21.8974 203.351 22.6454C202.149 23.3934 201.209 24.4247 200.529 25.7394C199.871 27.0541 199.543 28.5954 199.543 30.3634C199.543 32.1314 199.883 33.6841 200.563 35.0214C201.265 36.3361 202.229 37.3674 203.453 38.1154C204.677 38.8634 206.082 39.2374 207.669 39.2374C208.961 39.2374 210.151 38.9881 211.239 38.4894C212.327 37.9681 213.199 37.2427 213.857 36.3134C214.514 35.3614 214.843 34.2394 214.843 32.9474V31.0094L216.951 32.8454H207.567V28.9354H219.467V31.4854C219.467 33.4347 219.138 35.1574 218.481 36.6534C217.823 38.1494 216.928 39.4074 215.795 40.4274C214.684 41.4247 213.426 42.1841 212.021 42.7054C210.615 43.2041 209.165 43.4534 207.669 43.4534ZM222.752 43.0454V24.5494H226.934V28.6634L226.594 28.0514C227.024 26.6687 227.693 25.7054 228.6 25.1614C229.529 24.6174 230.64 24.3454 231.932 24.3454H233.02V28.2894H231.422C230.152 28.2894 229.132 28.6861 228.362 29.4794C227.591 30.2501 227.206 31.3381 227.206 32.7434V43.0454H222.752ZM235.469 43.0454V24.5494H239.923V43.0454H235.469ZM235.469 22.4754V17.7154H239.923V22.4754H235.469ZM252.637 43.4534C250.846 43.4534 249.248 43.0341 247.843 42.1954C246.438 41.3341 245.327 40.1667 244.511 38.6934C243.695 37.2201 243.287 35.5881 243.287 33.7974C243.287 31.9841 243.695 30.3521 244.511 28.9014C245.327 27.4507 246.438 26.2947 247.843 25.4334C249.271 24.5721 250.858 24.1414 252.603 24.1414C254.008 24.1414 255.255 24.4247 256.343 24.9914C257.454 25.5354 258.326 26.3061 258.961 27.3034L258.281 28.2214V17.3074H262.735V43.0454H258.519V39.4754L258.995 40.3594C258.36 41.3567 257.476 42.1274 256.343 42.6714C255.21 43.1927 253.974 43.4534 252.637 43.4534ZM253.113 39.3734C254.133 39.3734 255.028 39.1354 255.799 38.6594C256.57 38.1834 257.17 37.5261 257.601 36.6874C258.054 35.8487 258.281 34.8854 258.281 33.7974C258.281 32.7321 258.054 31.7801 257.601 30.9414C257.17 30.0801 256.57 29.4114 255.799 28.9354C255.028 28.4594 254.133 28.2214 253.113 28.2214C252.116 28.2214 251.22 28.4707 250.427 28.9694C249.634 29.4454 249.01 30.1027 248.557 30.9414C248.126 31.7574 247.911 32.7094 247.911 33.7974C247.911 34.8854 248.126 35.8487 248.557 36.6874C249.01 37.5261 249.634 38.1834 250.427 38.6594C251.22 39.1354 252.116 39.3734 253.113 39.3734Z" fill="white"/>
</svg>
