<svg width="16" height="21" viewBox="0 0 16 21" fill="none" xmlns="http://www.w3.org/2000/svg">
<path d="M8 10.7695C8.55 10.7695 9.02083 10.5737 9.4125 10.182C9.80417 9.79037 10 9.31953 10 8.76953C10 8.21953 9.80417 7.7487 9.4125 7.35703C9.02083 6.96536 8.55 6.76953 8 6.76953C7.45 6.76953 6.97917 6.96536 6.5875 7.35703C6.19583 7.7487 6 8.21953 6 8.76953C6 9.31953 6.19583 9.79037 6.5875 10.182C6.97917 10.5737 7.45 10.7695 8 10.7695ZM8 20.7695C5.31667 18.4862 3.3125 16.3654 1.9875 14.407C0.6625 12.4487 0 10.6362 0 8.96953C0 6.46953 0.804167 4.47786 2.4125 2.99453C4.02083 1.5112 5.88333 0.769531 8 0.769531C10.1167 0.769531 11.9792 1.5112 13.5875 2.99453C15.1958 4.47786 16 6.46953 16 8.96953C16 10.6362 15.3375 12.4487 14.0125 14.407C12.6875 16.3654 10.6833 18.4862 8 20.7695Z" fill="white"/>
</svg>
