<svg width="20" height="17" viewBox="0 0 20 17" fill="none" xmlns="http://www.w3.org/2000/svg">
<path d="M2 16.7695C1.45 16.7695 0.979167 16.5737 0.5875 16.182C0.195833 15.7904 0 15.3195 0 14.7695V2.76953C0 2.21953 0.195833 1.7487 0.5875 1.35703C0.979167 0.965365 1.45 0.769531 2 0.769531H18C18.55 0.769531 19.0208 0.965365 19.4125 1.35703C19.8042 1.7487 20 2.21953 20 2.76953V14.7695C20 15.3195 19.8042 15.7904 19.4125 16.182C19.0208 16.5737 18.55 16.7695 18 16.7695H2ZM10 9.76953L18 4.76953V2.76953L10 7.76953L2 2.76953V4.76953L10 9.76953Z" fill="white"/>
</svg>
