<svg width="23" height="25" viewBox="0 0 23 25" fill="none" xmlns="http://www.w3.org/2000/svg">
<path d="M19.8628 17.4739C18.4129 16.2338 16.9415 15.4827 15.5095 16.7209L14.6544 17.4692C14.0287 18.0124 12.8655 20.5506 8.36791 15.3768C3.8713 10.2096 6.54716 9.4051 7.17375 8.86656L8.03354 8.11728C9.45811 6.87628 8.9205 5.31404 7.89305 3.7059L7.27303 2.73184C6.2409 1.12745 5.11698 0.0737754 3.68867 1.31289L2.91691 1.98724C2.28564 2.44711 0.521093 3.94192 0.0930673 6.78169C-0.422062 10.189 1.20294 14.0909 4.92591 18.3721C8.64421 22.6551 12.2848 24.8065 15.7333 24.769C18.5993 24.7381 20.3301 23.2002 20.8715 22.6411L21.6461 21.9658C23.0706 20.7276 22.1855 19.467 20.7347 18.2241L19.8628 17.4739Z" fill="white"/>
</svg>
